<?xml version="1.0" encoding="UTF-8"?>
<svg width="625px" height="638px" viewBox="0 0 625 638" version="1.1" xmlns="http://www.w3.org/2000/svg" xmlns:xlink="http://www.w3.org/1999/xlink">
    <!-- Generator: sketchtool 52.6 (67491) - http://www.bohemiancoding.com/sketch -->
    <title>0EE56D4B-8B40-43BF-B330-A83C0DC88A46</title>
    <desc>Created with sketchtool.</desc>
    <g id="Page-1" stroke="none" stroke-width="1" fill="none" fill-rule="evenodd">
        <g id="nar_trans_A00" transform="translate(-723.000000, -221.000000)">
            <g id="Group-14" transform="translate(720.000000, 218.000000)">
                <g id="noun_Millennium-Falcon_2202283" transform="translate(185.000000, 104.000000)">
                    <g id="Group">
                        <path d="M40.7421711,64.7753754 C39.3436718,66.1745746 38.5776888,68.0266266 38.5776888,70.0006006 C38.5776888,71.9745746 39.3436718,73.8324324 40.7421711,75.2258258 C42.1812906,76.6656657 44.0730365,77.3855856 45.9647824,77.3855856 C47.8565283,77.3855856 49.754077,76.6656657 51.1873937,75.2258258 C52.5858929,73.8266266 53.3518759,71.9745746 53.3518759,70.0006006 C53.3518759,68.0266266 52.5858929,66.1687688 51.1873937,64.7753754 C48.3091546,61.8898899 43.6204102,61.8898899 40.7421711,64.7753754 Z M48.4542271,72.4854855 C47.0789395,73.8614615 44.8448224,73.8614615 43.4695348,72.4854855 C42.808004,71.8236236 42.4366183,70.9353353 42.4366183,69.9947948 C42.4424212,69.0542543 42.808004,68.1717718 43.4695348,67.5041041 C44.1542771,66.819019 45.0595298,66.4764765 45.9589795,66.4764765 C46.8584292,66.4764765 47.7636818,66.8248248 48.4542271,67.5041041 C49.1157579,68.165966 49.4871436,69.0542543 49.4871436,69.9947948 C49.4871436,70.9353353 49.1157579,71.8178178 48.4542271,72.4854855 Z" id="Shape" fill="#F2907B" fill-rule="nonzero"></path>
                        <circle id="Oval" fill="#F2907B" transform="translate(24.741426, 79.645277) rotate(-45.000000) translate(-24.741426, -79.645277) " cx="24.7414259" cy="79.6452772" r="2.07198118"></circle>
                        <circle id="Oval" fill="#F2907B" transform="translate(82.613908, 14.027778) rotate(-45.000000) translate(-82.613908, -14.027778) " cx="82.6139077" cy="14.0277784" r="2.07198118"></circle>
                        <circle id="Oval" fill="#F2907B" transform="translate(69.110486, 19.817760) rotate(-45.000000) translate(-69.110486, -19.817760) " cx="69.1104864" cy="19.8177599" r="2.07198118"></circle>
                        <circle id="Oval" fill="#F2907B" transform="translate(101.905264, 33.329755) rotate(-45.000000) translate(-101.905264, -33.329755) " cx="101.905264" cy="33.3297552" r="2.07198118"></circle>
                        <circle id="Oval" fill="#F2907B" transform="translate(96.117989, 46.835246) rotate(-45.000000) translate(-96.117989, -46.835246) " cx="96.1179894" cy="46.8352456" r="2.07198118"></circle>
                        <circle id="Oval" fill="#F2907B" transform="translate(13.171587, 79.643636) rotate(-45.000000) translate(-13.171587, -79.643636) " cx="13.171587" cy="79.6436365" r="2.07198118"></circle>
                        <circle id="Oval" fill="#F2907B" transform="translate(20.883189, 95.083608) rotate(-45.000000) translate(-20.883189, -95.083608) " cx="20.8831893" cy="95.083608" r="2.07198118"></circle>
                        <circle id="Oval" fill="#F2907B" transform="translate(36.318525, 102.806968) rotate(-45.000000) translate(-36.318525, -102.806968) " cx="36.3185247" cy="102.806968" r="2.07198118"></circle>
                        <circle id="Oval" fill="#F2907B" transform="translate(28.606121, 87.360376) rotate(-45.000000) translate(-28.606121, -87.360376) " cx="28.6061205" cy="87.3603762" r="2.07198118"></circle>
                        <circle id="Oval" fill="#F2907B" transform="translate(36.319584, 91.225230) rotate(-45.000000) translate(-36.319584, -91.225230) " cx="36.3195838" cy="91.2252297" r="2.07198118"></circle>
                        <path d="M115.477739,24.3379379 L106.970685,15.8266266 C106.663132,15.5189189 106.245323,15.3447447 105.810105,15.3447447 C105.374887,15.3447447 104.957079,15.5189189 104.649525,15.8266266 L92.3125563,28.1697698 L87.8211106,23.6760761 L100.152276,11.3329329 C100.796398,10.6884885 100.796398,9.64924925 100.152276,9.0048048 L91.6394197,0.493493493 C91.1577789,0.0116116116 90.4324162,-0.121921922 89.8057029,0.150950951 L27.2098049,27.9897898 C27.145973,28.0188188 27.087944,28.0478478 27.0241121,28.0884885 C24.5868934,29.1973974 22.2251126,30.5327327 20.0026013,32.0538539 L19.4571286,32.4312312 C19.0973487,32.6808809 18.8478239,33.0582583 18.7723862,33.4878879 C18.6911456,33.9175175 18.7897949,34.3645646 19.0393197,34.7245245 L19.4281141,35.2876877 L11.2692346,43.4506507 L10.7063532,43.0616617 C10.3465733,42.812012 9.89974987,42.7191191 9.47033517,42.7945946 C9.04092046,42.8758759 8.65792896,43.1197197 8.4142071,43.4796797 L8.03701851,44.0254254 C-4.46243122,62.2556557 -2.17608804,86.849049 13.4743372,102.501502 C15.662031,104.69029 18.076038,106.664264 20.6409205,108.35956 C23.1535768,110.02002 25.8403202,111.442442 28.6257129,112.574575 C31.3762881,113.695095 34.2487244,114.554354 37.1675838,115.123323 C40.0690345,115.692292 43.045923,115.976777 45.9995998,115.976777 C50.5490745,115.976777 55.0521261,115.303303 59.3868934,113.97958 C63.8435218,112.621021 68.0564282,110.583183 71.9153577,107.935736 L72.4608304,107.558358 C72.8206103,107.308709 73.0701351,106.931331 73.1455728,106.501702 C73.2268134,106.072072 73.1281641,105.625025 72.8786393,105.265065 L72.4492246,104.643844 L80.5964982,96.4924925 L81.2174087,96.9221221 C81.5771886,97.1717718 82.024012,97.2646647 82.4534267,97.1891892 C82.8828414,97.1079079 83.2658329,96.8640641 83.5095548,96.5041041 L83.8867434,95.9583584 C85.1865933,94.0656657 86.3413707,92.0800801 87.322061,90.0538539 L93.4963482,93.4908909 C94.1404702,93.8508509 94.9412706,93.7347347 95.4577289,93.218018 L103.564382,85.1073073 C103.628214,85.0434434 103.686243,84.9737738 103.738469,84.8982983 L113.742671,70.8888889 C114.212706,70.2328328 114.137269,69.3387387 113.568584,68.7697698 L106.9997,62.1801802 C106.431016,61.6112112 105.537369,61.5357357 104.881641,62.006006 L97.5873937,67.2196196 L115.814307,26.1783784 C116.092846,25.5513514 115.95938,24.8198198 115.477739,24.3379379 Z M89.0397199,31.4442442 L67.2324162,53.2624625 L62.7409705,48.7687688 L84.5482741,26.9505506 L89.0397199,31.4442442 Z M58.3133567,92.3239239 L59.5725863,94.1469469 C57.8491246,95.1223223 56.0154077,95.9119119 54.1236618,96.4924925 C52.231916,97.0730731 50.2705353,97.4504505 48.2801401,97.613013 L48.2801401,85.7807808 C49.8643322,85.5485485 51.3904952,85.0898899 52.8296148,84.398999 L53.5897949,85.4962963 C53.9785893,86.2394394 54.7561781,86.7445445 55.6498249,86.7445445 C56.9322661,86.7445445 57.9767884,85.7053053 57.9767884,84.4164164 C57.9767884,83.8242242 57.7562781,83.2900901 57.3964982,82.8778779 L56.6653327,81.8154154 C56.8684342,81.6296296 57.05993,81.4554555 57.2398199,81.2812813 C57.2456228,81.2754755 57.2514257,81.2696697 57.2514257,81.2696697 C57.4429215,81.0780781 57.6228114,80.8864865 57.7910955,80.6948949 L70.0178089,89.1655656 L65.1317659,94.0540541 L62.0852426,89.6532533 C61.9981991,89.4964965 61.8995498,89.3513514 61.7834917,89.2178178 L61.766083,89.1945946 C61.3424712,88.7185185 60.7215608,88.4224224 60.0368184,88.4224224 C58.7543772,88.4224224 57.7098549,89.4616617 57.7098549,90.7505506 C57.7098549,91.3601602 57.9361681,91.9059059 58.3133567,92.3239239 Z M60.3617809,76.8630631 C60.5938969,76.3811812 60.7969985,75.8934935 60.9710855,75.4058058 L71.3176588,81.1535536 C70.9462731,81.9953954 70.5342671,82.814014 70.0932466,83.6036036 L60.3617809,76.8630631 Z M59.2766383,61.2164164 C58.6847424,60.3165165 58,59.4746747 57.2398199,58.7141141 C56.4912456,57.9651652 55.6730365,57.2916917 54.7909955,56.7111111 L59.4623312,52.0374374 L63.9537769,56.5311311 L59.2766383,61.2164164 Z M53.9611806,43.4738739 C55.8123062,44.0254254 57.5995998,44.7743744 59.2824412,45.6974975 L50.3285643,54.6442442 C49.6438219,54.4526527 48.9590795,54.3075075 48.2743372,54.2088088 L48.2743372,42.4056056 C50.2067034,42.5623624 52.1158579,42.9223223 53.9611806,43.4738739 Z M48.2743372,37.7783784 L48.2743372,28.7039039 C52.0462231,28.9129129 55.7426713,29.6212212 59.2650325,30.8172172 C62.769985,32.0074074 66.1066533,33.6736737 69.187994,35.7753754 L62.653927,42.3127127 C58.3307654,39.7001001 53.3692846,38.1383383 48.2743372,37.7783784 Z M70.2905453,56.7343343 C71.1203602,58.2496496 71.8051026,59.8520521 72.3331666,61.4950951 C72.8554277,63.1207207 73.2268134,64.8102102 73.4415208,66.5113113 L63.2052026,63.8116116 L70.2905453,56.7343343 Z M89.8173087,5.20780781 L94.7787894,10.1717718 L72.5014507,32.4602603 C68.8630315,29.8766767 64.8938469,27.8446446 60.6983492,26.428028 C56.4506253,24.993994 51.9997999,24.1927928 47.4503252,24.0418418 L89.8173087,5.20780781 Z M33.7438719,30.4688689 C36.9470735,29.4818819 40.277939,28.8838839 43.6610305,28.7039039 L43.6610305,37.7841842 C41.2296148,37.9583584 38.8214107,38.3995996 36.5002501,39.1079079 C34.1326663,39.8278278 31.857929,40.8206206 29.734067,42.0572573 L24.5810905,34.6084084 C27.4593297,32.8434434 30.5406703,31.4558559 33.7438719,30.4688689 Z M21.8537269,50.7833834 L26.7571786,45.8774775 L35.2642321,58.1741742 C35.0611306,58.35996 34.8696348,58.5399399 34.683942,58.7141141 C34.4924462,58.9057057 34.3125563,59.1031031 34.1326663,59.3005005 L21.8537269,50.7833834 Z M31.5677839,63.1381381 C30.8772386,64.5721722 30.4130065,66.0990991 30.1808904,67.6898899 L18.3661831,67.6898899 C18.5286643,65.6984985 18.9058529,63.7361361 19.4861431,61.8434434 C20.0664332,59.9507508 20.8556278,58.1161161 21.8305153,56.3917918 L31.5677839,63.1381381 Z M32.3627814,45.8542543 C34.0978489,44.8788789 35.9431716,44.0892893 37.8581291,43.5029029 C39.7382691,42.9281281 41.688044,42.5565566 43.6610305,42.3997998 L43.6610305,54.2088088 C42.0768384,54.441041 40.5448724,54.8996997 39.1057529,55.5905906 L32.3627814,45.8542543 Z M22.1032516,39.1427427 L24.0878439,42.0166166 L17.9947974,48.1127127 L15.1223612,46.1271271 L22.1032516,39.1427427 Z M6.418009,57.8896897 C7.41610805,54.6326326 8.8146073,51.5091091 10.5844922,48.5945946 L18.0238119,53.7501502 C16.7877939,55.8692693 15.7954977,58.1277277 15.075938,60.4674675 C14.3563782,62.8014014 13.9037519,65.2282282 13.7296648,67.6898899 L4.67713857,67.6898899 C4.86283142,64.3573574 5.44312156,61.0654655 6.418009,57.8896897 Z M43.6552276,111.297297 C33.4943472,110.722523 23.9427714,106.449449 16.7297649,99.2386386 C9.52256128,92.0278278 5.25162581,82.4772773 4.67713857,72.2996997 L30.1808904,72.2996997 C30.6741371,75.7193193 32.2235118,78.8138138 34.683942,81.2754755 C37.1443722,83.7371371 40.2373187,85.2872873 43.6552276,85.7807808 L43.6552276,111.297297 Z M45.9647824,81.3335335 C42.9356678,81.3335335 40.0922461,80.154955 37.9509755,78.0126126 C35.8097049,75.8702703 34.6317159,73.0254254 34.6317159,69.9947948 C34.6317159,66.9641642 35.8097049,64.1193193 37.9509755,61.976977 C40.0922461,59.8346346 42.9356678,58.6560561 45.9647824,58.6560561 C48.9938969,58.6560561 51.8373187,59.8346346 53.9785893,61.976977 C56.1198599,64.1193193 57.2978489,66.9641642 57.2978489,69.9947948 C57.2978489,73.0254254 56.1198599,75.8702703 53.9785893,78.0126126 C51.8373187,80.154955 48.9938969,81.3335335 45.9647824,81.3335335 Z M58.0638319,109.561361 C54.8896448,110.530931 51.5993997,111.117317 48.2743372,111.303103 L48.2743372,102.24024 C50.7289645,102.066066 53.1545773,101.613213 55.4931466,100.893293 C57.8317159,100.173373 60.0890445,99.1805806 62.2071036,97.9439439 L67.36008,105.386987 C64.4412206,107.163564 61.3192596,108.568569 58.0638319,109.561361 Z M69.7856928,100.794595 L67.8011006,97.9207207 L73.8767384,91.842042 L76.7491746,93.8276276 L69.7856928,100.794595 Z M81.3508754,91.4008008 L73.9115558,86.2452452 C74.4396198,85.3395395 74.9270635,84.3931932 75.3738869,83.412012 L83.2890445,87.8128128 C82.6855428,89.0668669 82.0356178,90.2686687 81.3508754,91.4008008 Z M85.0531266,83.5107107 L61.8995498,70.6392392 C61.9053527,70.4418418 61.9111556,70.2328328 61.9111556,70.0006006 C61.9111556,69.4258258 61.8763382,68.8336336 61.8125063,68.2356356 L87.0203102,74.8716717 C86.677939,77.8152152 86.0164082,80.7181181 85.0531266,83.5107107 Z M87.3046523,70.1631632 L78.2115058,67.7653654 C78.0374187,65.2166166 77.5615808,62.6910911 76.8014007,60.2642643 C76.0412206,57.849049 74.9908954,55.5267267 73.6794397,53.3437437 L80.2077039,46.8064064 C82.3663832,49.9821822 84.0608304,53.425025 85.2504252,57.0478478 C86.4864432,60.8158158 87.1769885,64.7753754 87.2930465,68.8046046 C87.2988494,69.2168168 87.3046523,69.6464464 87.3046523,70.1631632 Z M93.7864932,88.3643644 L89.149975,85.7865866 C90.2641321,82.7327327 91.0533267,79.5685686 91.4885443,76.357958 L98.6377189,83.5107107 L93.7864932,88.3643644 Z M105.514157,67.2196196 L108.531666,70.2386386 L106.431016,73.187988 L102.566283,69.3213213 L105.514157,67.2196196 Z M98.7595798,72.0442442 L103.709455,76.9965966 L101.608804,79.9459459 L95.8175088,74.1517518 L98.7595798,72.0442442 Z M91.9005503,68.642042 C91.7670835,64.0612613 90.9662831,59.5617618 89.5271636,55.2828829 C88.1170585,51.0968969 86.0976488,47.1315315 83.5211606,43.4970971 L105.804302,21.2028028 L110.771586,26.1667668 L91.9005503,68.642042 Z" id="Shape" fill="#182A46" fill-rule="nonzero"></path>
                    </g>
                </g>
                <g id="Group" transform="translate(414.000000, 14.000000)" fill-rule="nonzero">
                    <path d="M71.1513605,72.0985976 L70.8206512,72.0930854 C64.9841163,72.0930854 56.0162209,77.1725732 41.8607558,85.4560244 C37.6210349,87.9392683 33.6566744,89.5350488 30.034093,90.2158049 L30.0313256,83.6245976 C30.0313256,82.2754878 28.9298837,81.1758049 27.5738372,81.1758049 L2.71805814,81.1758049 C1.35786047,81.1758049 0.257802326,82.2754878 0.257802326,83.6245976 L0.257802326,96.0022317 C0.257802326,104.171305 6.92456977,110.819012 14.8906512,110.819012 C14.896186,110.819012 14.9017209,110.819012 14.9072558,110.819012 C14.9072558,110.819012 15.1784651,110.847951 15.7056628,110.847951 C18.4343605,110.847951 28.5604302,110.012854 44.4870581,99.2668293 C57.0899884,90.7642683 64.2424419,87.8400488 71.7006977,85.8777073 C75.7231744,84.8152317 78.0298372,82.3168293 78.0298372,79.0274268 C78.0284535,75.2694878 75.0077907,72.2212439 71.1513605,72.0985976 Z M41.7237674,95.2126098 C26.5803256,105.429463 17.395186,105.948988 15.7028953,105.948988 C15.5119419,105.948988 15.3943256,105.94072 15.1424884,105.929695 C9.64911628,105.929695 5.17416279,101.47722 5.17416279,96.0022317 L5.17416279,86.0761463 L25.1121977,86.0761463 L25.1135814,92.9994634 C25.1135814,93.6760854 25.3972442,94.3251463 25.8912326,94.7881707 C26.3879884,95.2525732 27.059093,95.4703049 27.7357326,95.444122 C32.8098372,95.1065 38.398686,93.1662073 44.3528372,89.681122 C49.6054419,86.6080732 54.7127558,83.6177073 59.1724884,81.3136098 C59.5585465,82.279622 60.0954302,83.3420976 60.8384884,84.3866585 C55.6356977,86.5846463 49.7161395,89.8203049 41.7237674,95.2126098 Z M70.4442791,81.1399756 C68.8654535,81.5547683 67.2976977,82.0288171 65.7036512,82.5566098 C64.6326512,81.5423659 63.9864535,80.2221951 63.6031628,79.1610976 C66.6376628,77.8147439 69.1837093,76.9934268 70.9908488,76.9934268 C70.9908488,76.9934268 70.9908488,76.9934268 70.9922326,76.9934268 C72.1780814,77.0320122 73.1107093,77.9249878 73.1107093,79.0288049 C73.112093,80.191878 71.6578023,80.8188902 70.4442791,81.1399756 Z" id="Shape" fill="#F2907B"></path>
                    <path d="M116.173488,78.0807073 L107.817198,68.0802073 C112.698965,49.9561098 105.416442,31.2490976 90.7351628,20.8586098 C92.5921163,20.1792317 94.1238953,18.8811098 95.0537558,17.1296098 C96.0486512,15.244439 96.247907,13.0864146 95.6141628,11.0524146 C94.566686,7.69962195 91.4962093,5.44789024 87.9746395,5.44789024 C87.1706977,5.44789024 86.3722907,5.56778049 85.6015581,5.81031707 C83.2008023,6.55032927 81.1307558,8.12819512 79.4841279,9.81079268 C79.0441047,7.49980488 78.2014186,5.0427439 76.6212093,3.09693902 C75.0949651,1.22417073 72.8325814,0.143780488 70.4083023,0.143780488 C68.5776395,0.143780488 66.7912558,0.780439024 65.3701744,1.92559756 C63.711093,3.26781707 62.6733023,5.16952439 62.451907,7.28620732 C62.2457326,9.25681707 62.793686,11.1778171 63.9532442,12.7722195 C45.3809419,13.2807195 29.369907,25.0823293 23.4240581,42.6138659 L10.9166047,46.3097927 C10.1251163,46.5468171 9.50244186,47.1586707 9.26305814,47.9510488 C9.02367442,48.7365366 9.19663953,49.5923049 9.72660465,50.2275854 C12.4622209,53.493561 16.5760233,56.0774024 21.3194186,57.5091951 C23.9042093,58.2891707 26.5249767,58.6791585 29.0405814,58.6791585 C31.139686,58.6791585 33.1640698,58.409061 35.0279419,57.8550854 C38.508,56.8325732 41.1176977,54.9446463 42.6314884,52.4462439 L86.370907,65.6479512 C86.0637209,72.1730122 92.0995116,78.8744634 101.281884,81.6443415 C103.866674,82.4201829 106.488826,82.8143049 109.000279,82.8143049 C111.099384,82.8143049 113.119616,82.5469634 114.977953,81.9929878 C115.772209,81.7642317 116.392116,81.1441098 116.635651,80.3572439 C116.876419,79.5717561 116.703453,78.7159878 116.173488,78.0807073 Z M103.403128,65.6727561 L88.1531395,61.0686951 C91.6387326,47.5927561 89.9921047,33.5325244 83.8262442,22.3138293 C99.2132209,30.5683415 107.521081,48.3245 103.403128,65.6727561 Z M48.4043721,49.0686463 C53.3387209,35.2247683 63.8259419,24.3009756 76.434407,19.9022439 C84.4447674,30.5421585 87.0669186,45.4126829 83.4457209,59.6479268 L48.4043721,49.0686463 Z M87.06,10.4860366 C88.6748023,9.97753659 90.4210581,10.9270122 90.9164302,12.5062561 C91.1599651,13.2903659 91.081093,14.1199512 90.6978023,14.8461829 C90.3172791,15.5724146 89.6738488,16.1043415 88.8906628,16.3427439 C86.6504186,17.0372805 83.2077209,16.3413659 81.0131395,15.5627683 C82.4452907,13.6031829 84.6426395,11.231561 87.06,10.4860366 Z M68.4683256,5.73590244 C69.0231977,5.28803659 69.6943023,5.0482561 70.4069186,5.0482561 C71.3381628,5.0482561 72.2126744,5.46304878 72.7993721,6.18790244 C74.3837326,8.13232927 74.8915581,11.3252683 74.9953372,13.7547683 C72.6333256,13.1622073 69.6057442,12.0060244 68.0158488,10.0491951 C67.4955698,9.41115854 67.256186,8.60913415 67.3419767,7.79884146 C67.4277674,6.98441463 67.8262791,6.25404878 68.4683256,5.73590244 Z M65.2041279,17.6215732 C66.4439419,17.6215732 67.6823721,17.702878 68.922186,17.8186341 C57.5313953,23.7345976 48.3199651,34.5178293 43.6969535,47.6520122 L28.4538837,43.0507073 C34.1534302,27.7447195 48.6257674,17.6215732 65.2041279,17.6215732 Z M33.6317674,53.1628293 C30.4492093,54.0985244 26.5844767,53.9813902 22.7446512,52.8224512 C20.3937093,52.1155122 18.2517093,51.0709512 16.4542558,49.7879878 L25.2270465,47.195878 L37.5753721,50.9179878 C36.6261395,51.882622 35.3226744,52.6598415 33.6317674,53.1628293 Z M102.705733,76.9562195 C96.6325814,75.1234146 92.092593,71.0182073 91.3758256,67.1569146 L103.778116,70.9024512 L109.631256,77.9125854 C107.417302,77.959439 105.056674,77.6659146 102.705733,76.9562195 Z" id="Shape" fill="#182A46"></path>
                </g>
                <g id="Group" transform="translate(570.032774, 279.545123) rotate(-20.000000) translate(-570.032774, -279.545123) translate(518.958839, 244.345519)">
                    <circle id="Oval" fill="#F2907B" cx="57.9758189" cy="44.1720525" r="1.38037664"></circle>
                    <circle id="Oval" fill="#F2907B" cx="73.159962" cy="44.1720525" r="1.38037664"></circle>
                    <circle id="Oval" fill="#F2907B" cx="88.344105" cy="44.1720525" r="1.38037664"></circle>
                    <circle id="Oval" fill="#F2907B" cx="95.2459883" cy="44.1720525" r="1.38037664"></circle>
                    <circle id="Oval" fill="#F2907B" cx="80.0618452" cy="44.1720525" r="1.38037664"></circle>
                    <circle id="Oval" fill="#F2907B" cx="64.8777021" cy="44.1720525" r="1.38037664"></circle>
                    <circle id="Oval" fill="#F2907B" cx="60.7365722" cy="49.6935591" r="1.38037664"></circle>
                    <circle id="Oval" fill="#F2907B" cx="57.9758189" cy="52.4543124" r="1.38037664"></circle>
                    <circle id="Oval" fill="#F2907B" cx="69.0188321" cy="49.6935591" r="1.38037664"></circle>
                    <circle id="Oval" fill="#F2907B" cx="77.3010919" cy="49.6935591" r="1.38037664"></circle>
                    <circle id="Oval" fill="#F2907B" cx="73.159962" cy="52.4543124" r="1.38037664"></circle>
                    <circle id="Oval" fill="#F2907B" cx="84.2029751" cy="49.6935591" r="1.38037664"></circle>
                    <circle id="Oval" fill="#F2907B" cx="92.485235" cy="49.6935591" r="1.38037664"></circle>
                    <circle id="Oval" fill="#F2907B" cx="88.344105" cy="52.4543124" r="1.38037664"></circle>
                    <circle id="Oval" fill="#F2907B" cx="95.2459883" cy="52.4543124" r="1.38037664"></circle>
                    <circle id="Oval" fill="#F2907B" cx="80.0618452" cy="52.4543124" r="1.38037664"></circle>
                    <circle id="Oval" fill="#F2907B" cx="64.8777021" cy="52.4543124" r="1.38037664"></circle>
                    <circle id="Oval" fill="#F2907B" cx="60.7365722" cy="56.5954423" r="1.38037664"></circle>
                    <circle id="Oval" fill="#F2907B" cx="69.0188321" cy="56.5954423" r="1.38037664"></circle>
                    <circle id="Oval" fill="#F2907B" cx="77.3010919" cy="56.5954423" r="1.38037664"></circle>
                    <circle id="Oval" fill="#F2907B" cx="73.159962" cy="60.7365722" r="1.38037664"></circle>
                    <circle id="Oval" fill="#F2907B" cx="84.2029751" cy="56.5954423" r="1.38037664"></circle>
                    <circle id="Oval" fill="#F2907B" cx="92.485235" cy="56.5954423" r="1.38037664"></circle>
                    <circle id="Oval" fill="#F2907B" cx="88.344105" cy="60.7365722" r="1.38037664"></circle>
                    <circle id="Oval" fill="#F2907B" cx="80.0618452" cy="60.7365722" r="1.38037664"></circle>
                    <circle id="Oval" fill="#F2907B" cx="64.8777021" cy="60.7365722" r="1.38037664"></circle>
                    <circle id="Oval" fill="#F2907B" cx="69.0188321" cy="63.4973255" r="1.38037664"></circle>
                    <circle id="Oval" fill="#F2907B" cx="77.3010919" cy="63.4973255" r="1.38037664"></circle>
                    <circle id="Oval" fill="#F2907B" cx="84.2029751" cy="63.4973255" r="1.38037664"></circle>
                    <path d="M102.147871,39.0911162 C102.147871,39.0911162 102.147871,39.1106715 102.147871,39.1106715 L102.147871,60.6215408 C102.147871,61.6970843 101.263899,62.5770744 100.183489,62.5770744 C98.6119836,62.5770744 97.138697,63.1832898 96.0189992,64.297944 C94.8993013,65.4125981 94.2903429,66.8792483 94.2903429,68.4436751 C94.2903429,68.9521139 94.0939047,69.4801079 93.7206721,69.832104 C93.3474395,70.1841 92.8563439,70.3992087 92.3259607,70.3992087 L62.8602286,70.3992087 C62.3494892,70.3992087 61.8780375,70.2036553 61.5048049,69.8712146 L52.4882909,61.3646436 C52.4490032,61.3059776 52.3900718,61.2668669 52.3507841,61.2082009 C51.9186201,60.6997622 51.3685931,60.6215408 51.0739357,60.6215408 C50.7792784,60.6215408 50.2292514,60.6997622 49.7970873,61.2082009 C49.7577997,61.2668669 49.6988682,61.3255329 49.6595806,61.3646436 L40.6430665,69.8712146 C40.2698339,70.2036553 39.7983822,70.3992087 39.2876429,70.3992087 L9.82191072,70.3992087 C8.74150054,70.3992087 7.85752857,69.5192186 7.85752857,68.4436751 C7.85752857,65.2170447 5.20561268,62.5770744 1.96438214,62.5770744 C0.883971965,62.5770744 -7.10542736e-15,61.6970843 -7.10542736e-15,60.6215408 L-7.10542736e-15,39.1106715 C-7.10542736e-15,39.1106715 -7.10542736e-15,39.0911162 -7.10542736e-15,39.0911162 C-7.10542736e-15,38.8564521 0.0589314643,38.6413434 0.117862929,38.4457901 C0.13750675,38.3871241 0.176794393,38.3480134 0.196438214,38.2893474 C0.235725857,38.2111261 0.255369679,38.1329047 0.294657322,38.0742387 L19.6831091,7.52880426 C19.6634653,7.29414024 19.6438214,7.05947621 19.6438214,6.84436751 C19.6438214,3.67640312 21.9028609,0.860434773 25.0262285,0.175998022 C25.08516,0.156442686 25.1637353,0.13688735 25.2226667,0.13688735 L26.2834331,0.0195553358 C26.3620084,0 26.4405837,0 26.5191589,0 L38.3054518,0 C38.3643833,0 38.4429585,0 38.50189,0 L39.4251496,0.0977766788 C42.8431745,0.743102759 45.1807893,3.57862644 45.1807893,6.84436751 C45.1807893,10.6185473 42.0967093,13.688735 38.3054518,13.688735 L34.1606055,13.688735 L19.2705888,37.1551379 L82.8772826,37.1551379 L67.987266,13.688735 L63.8424197,13.688735 C60.0511621,13.688735 56.9670822,10.6185473 56.9670822,6.84436751 C56.9670822,3.57862644 59.3046969,0.743102759 62.5459274,0.117332015 L63.6459814,0 C63.7049129,0 63.7834882,0 63.8424197,0 L75.6287125,0 C75.7072878,0 75.7858631,0 75.8644384,0.0195553358 L76.9252047,0.13688735 C76.9841362,0.156442686 77.0627115,0.156442686 77.121643,0.175998022 C80.2450106,0.860434773 82.50405,3.67640312 82.50405,6.84436751 C82.50405,7.05947621 82.4844062,7.29414024 82.4647624,7.52880426 L101.83357,38.0742387 C101.872858,38.1329047 101.892502,38.2111261 101.931789,38.2697921 C101.971077,38.3284581 101.990721,38.3675687 102.010365,38.4262348 C102.08894,38.6413434 102.147871,38.8564521 102.147871,39.0911162 Z M70.7177572,10.6967687 L87.5328683,37.1551379 L96.6279576,37.1551379 L78.7520801,8.97589911 C78.4770666,8.52612639 78.3788475,7.99813232 78.4967105,7.48969359 C78.5556419,7.25502956 78.5752857,7.03992087 78.5752857,6.84436751 C78.5752857,5.51460468 77.6520261,4.34128454 76.3358901,4.00884383 L75.5108496,3.91106715 L63.1155983,3.98928849 C61.8976813,4.24350786 60.8958464,5.43638334 60.8958464,6.84436751 C60.8958464,8.46746038 62.2119825,9.77766788 63.8424197,9.77766788 L69.0676762,9.77766788 C69.7355661,9.77766788 70.3641684,10.1296639 70.7177572,10.6967687 Z M23.3957913,8.97589911 L5.51991382,37.1551379 L14.634647,37.1551379 L31.4301143,10.6967687 C31.7837031,10.1296639 32.4123054,9.77766788 33.0801953,9.77766788 L38.3054518,9.77766788 C39.935889,9.77766788 41.252025,8.46746038 41.252025,6.84436751 C41.252025,5.43638334 40.2501901,4.24350786 38.8751226,3.96973316 L38.2268765,3.91106715 L25.7923375,4.00884383 C24.4958453,4.34128454 23.5725857,5.51460468 23.5725857,6.84436751 C23.5725857,7.03992087 23.5922295,7.25502956 23.651161,7.48969359 C23.7690239,7.99813232 23.6708048,8.52612639 23.3957913,8.97589911 Z M38.50189,66.4881416 L46.8898018,58.5682306 C47.4987602,57.9033492 48.2648693,57.4340211 49.1095536,57.1406911 L49.1095536,41.0662051 L15.7150571,41.0662051 L3.92876429,41.0662051 L3.92876429,58.8615606 C7.77895329,59.643774 10.8041018,62.6552957 11.5898546,66.4881416 L38.50189,66.4881416 Z M98.2191072,44.9772722 L98.2191072,41.0662051 L94.2903429,41.0662051 C94.2903429,42.1417485 93.4063709,43.0217387 92.3259607,43.0217387 C91.2455506,43.0217387 90.3615786,42.1417485 90.3615786,41.0662051 L86.4328143,41.0662051 C86.4328143,42.1417485 85.5488423,43.0217387 84.4684322,43.0217387 C83.388022,43.0217387 82.50405,42.1417485 82.50405,41.0662051 L78.5752857,41.0662051 C78.5752857,42.1417485 77.6913138,43.0217387 76.6109036,43.0217387 C75.5304934,43.0217387 74.6465214,42.1417485 74.6465214,41.0662051 L70.7177572,41.0662051 C70.7177572,42.1417485 69.8337852,43.0217387 68.753375,43.0217387 C67.6729648,43.0217387 66.7889929,42.1417485 66.7889929,41.0662051 L62.8602286,41.0662051 C62.8602286,42.1417485 61.9762566,43.0217387 60.8958464,43.0217387 C59.8154363,43.0217387 58.9314643,42.1417485 58.9314643,41.0662051 L55.0027,41.0662051 C55.0027,42.1417485 54.1187281,43.0217387 53.0383179,43.0217387 L53.0383179,46.9328058 C54.1187281,46.9328058 55.0027,47.8127959 55.0027,48.8883394 C55.0027,49.9638828 54.1187281,50.843873 53.0383179,50.843873 L53.0383179,54.7549401 C54.1187281,54.7549401 55.0027,55.6349302 55.0027,56.7104737 C55.0027,57.1798017 54.8062618,57.5904638 54.5508921,57.9424598 C54.8062618,58.1380132 55.0616315,58.3335665 55.2777135,58.5877859 L55.8080967,59.0962246 C56.1223978,58.8420053 56.5152743,58.6660073 56.9670822,58.6660073 C58.0474923,58.6660073 58.9314643,59.5459974 58.9314643,60.6215408 C58.9314643,61.0322029 58.7743137,61.3841989 58.5582317,61.6970843 L59.8547239,62.9095151 C60.1690251,62.7139618 60.50297,62.5770744 60.8958464,62.5770744 C61.9762566,62.5770744 62.8602286,63.4570645 62.8602286,64.532608 C62.8602286,64.884604 62.7423657,65.1974894 62.5852151,65.4908194 L63.6459814,66.4881416 L68.753375,66.4881416 L76.6109036,66.4881416 L84.4684322,66.4881416 L90.5580168,66.4881416 C90.5973045,66.2143669 90.6955236,65.9601475 90.7740988,65.6863728 C90.538373,65.3539321 90.3615786,64.9823807 90.3615786,64.532608 C90.3615786,63.4570645 91.2455506,62.5770744 92.3259607,62.5770744 C92.6009742,62.205523 92.9152754,61.853527 93.2295765,61.5210863 C93.5635215,61.1886456 93.9171103,60.8953155 94.2903429,60.6215408 C94.2903429,59.5459974 95.1743148,58.6660073 96.254725,58.6660073 C96.7065329,58.6660073 97.0797655,58.8420053 97.4137105,59.0766693 C97.688724,58.998448 97.9440937,58.9202266 98.2191072,58.8615606 L98.2191072,52.7994065 L98.2191072,44.9772722 Z" id="Shape" stroke="#182A46" fill="#182A46" fill-rule="nonzero"></path>
                </g>
                <g id="Group" transform="translate(269.000000, 314.000000)">
                    <path d="M79.5636838,13.0603452 C79.0162676,13.020456 78.4849816,13 77.971842,13 C66.7593888,13 62.7137518,22.3708973 62.1562543,27.2271536 L53.2100837,81.6309299 C53.1798397,81.7863956 50.2774253,97.2429553 67.0325928,101.835329 L67.353179,101.895674 C68.020563,101.965225 68.6869388,102 69.3351682,102 C81.2250866,102 85.3372604,90.7655604 85.5066267,90.285867 L85.569131,90.1058541 L94.9750102,30.1094052 L94.9992054,29.8107474 C95.0576771,24.4134297 91.907262,13.9675692 79.5636838,13.0603452 Z M81.6495106,89.0605521 C81.1504848,90.3175738 77.7853375,97.9077756 69.33416,97.9077756 C68.8744515,97.9077756 68.400629,97.8862968 67.9237822,97.8423164 C55.0519423,94.2164889 57.0692161,82.9217041 57.1740619,82.3765514 L61.0886417,58.5688264 C64.1715118,60.9918406 69.4682417,64.0827434 76.4707323,64.0827434 C79.3257644,64.0827434 82.46509,63.5631608 85.8493919,62.2805691 L81.6495106,89.0605521 Z M88.2558049,31.7366806 C86.9785007,33.4161189 84.605356,33.7260274 82.9479856,32.4342305 C81.2936397,31.1373196 80.9891836,28.7286246 82.2634634,27.0502092 C83.5407677,25.3707709 85.9159287,25.0588168 87.5702746,26.3557277 C89.2256287,27.6485474 89.531093,30.0572423 88.2558049,31.7366806 Z" id="Shape" fill="#182A46" fill-rule="nonzero"></path>
                    <path d="M52.8591,67.1432619 L52.8289042,66.9520469 L32.3623597,9.33361433 L32.2394938,9.05707217 C29.682217,4.25510778 21.7667372,-3.45723152 10.1100947,1.71893862 C9.59260016,1.94921908 9.1000953,2.19080795 8.63362135,2.43753701 C-1.55591894,7.86968856 -0.701063781,18.118197 1.14192481,22.6837127 L19.3219139,75.1352275 C19.3698108,75.2873771 24.2063543,90.3645789 41.6543542,86.3069138 L41.9760962,86.2061661 C42.6164567,85.9450446 43.2391161,85.6520538 43.8274147,85.3385023 C54.633367,79.5784067 52.9361515,67.6480284 52.8591,67.1432619 Z M13.765876,46.4108243 L5.04760288,21.2639926 C4.87788133,20.8342728 0.876409501,10.3030539 11.8177225,5.47230449 C22.281108,0.825573801 27.8059088,9.67183876 28.4879187,10.8551102 L37.9996141,37.6313818 C28.9981246,49.6450311 17.2946265,47.4337219 13.765876,46.4108243 Z" id="Shape" fill="#F2907B" fill-rule="nonzero"></path>
                    <path d="M22.6456774,9.05346444 C24.8249624,9.40936189 26.3030399,11.4637639 25.9471078,13.6428366 C25.59011,15.8240404 23.5365734,17.2998427 21.355157,16.9482075 C19.1737406,16.5891134 17.6977944,14.5336458 18.0526609,12.3545731 C18.4096587,10.1733693 20.4653266,8.69543587 22.6456774,9.05346444 Z" id="Path" fill="#F2907B"></path>
                </g>
                <g id="Group-5" transform="translate(452.000000, 445.090247)" fill="#182A46">
                    <path d="M78.5473302,121.026376 L78.5473302,118.829646 C78.5473302,115.451944 75.8087614,112.707561 72.4450181,112.707561 L29.5702525,112.707561 C26.2065092,112.707561 23.4679404,115.451944 23.4679404,118.829646 L23.4679404,121.026376 L78.5473302,121.026376 Z M84.5520542,38.6459382 C79.5842049,42.0052831 75.4031604,46.4476954 72.2833877,51.6029742 L66.9892278,60.7111434 C66.9556819,60.7723336 66.8946893,60.8121073 66.8550441,60.8671785 L66.7605055,61.0262732 L66.7605055,62.6998266 L75.3665649,62.6998266 L79.0200231,56.4125281 C82.1763914,50.9849527 84.0641132,44.893463 84.5520542,38.6459382 Z M78.9407327,25.8235207 C73.7899055,29.3083056 69.4563795,33.9342887 66.3030608,39.3404476 C66.5805772,40.5214194 66.7605055,41.7299269 66.7605055,42.9782081 L66.7605055,55.0296284 L73.4148009,43.5839916 C76.5650699,38.1564162 78.4527917,32.067986 78.9407327,25.8235207 Z M68.37681,12.4595695 C64.1103759,16.1248656 60.6703919,20.6651824 58.1879921,25.7256163 L58.1879921,28.9442236 C59.6213187,29.6876852 60.9845039,30.5902414 62.1555623,31.7681538 C62.7197441,32.3372231 63.1924369,32.9736017 63.6590305,33.6099804 L64.912429,30.743217 C67.4222755,24.9913333 68.6055324,18.7223919 68.37681,12.4595695 Z M51.0000112,5.27277427 C48.2919387,10.9175751 46.8647113,17.1314453 46.8647113,23.4126247 L46.8647113,27.7601922 C48.1913008,27.3930507 49.5605853,27.1360516 51.0000112,27.1360516 C52.4272386,27.1360516 53.7965231,27.3899912 55.1383608,27.7510137 L55.1383608,23.4126247 C55.1383608,17.1314453 53.7111334,10.9175751 51.0000112,5.27277427 Z M35.7000113,39.3435071 C32.5466926,33.9373482 28.2131666,29.3083056 23.0592898,25.8235207 C23.5472308,32.067986 25.4380021,38.1564162 28.5882712,43.5870511 L35.239517,55.0296284 L35.239517,42.9782081 C35.239517,41.7207484 35.4224948,40.5122409 35.7000113,39.3435071 Z M29.7135851,51.5968552 C26.5938124,46.4446359 22.4158176,42.0052831 17.4479683,38.6459382 C17.9389589,44.893463 19.8266807,50.9849527 22.9799994,56.4125281 L26.6365072,62.6998266 L35.239517,62.6998266 L35.239517,61.0262732 L35.148028,60.8671785 C35.1053332,60.8121073 35.0473902,60.7723336 35.0107946,60.7111434 L29.7135851,51.5968552 Z M87.4554688,80.9954713 C91.5535814,76.8727226 94.7419967,71.901362 96.7986745,66.4453897 C92.9683885,67.9034962 89.367942,69.941155 86.1158823,72.4880367 L86.1158823,82.3431005 L87.4554688,80.9954713 Z M86.0500558,88.4988938 L82.1117165,88.4988938 L82.1117165,138.53471 L86.0500558,138.53471 L86.0500558,88.4988938 Z M15.9652148,88.4988938 L15.9652148,138.53471 L19.9066037,138.53471 L19.9066037,88.4988938 L15.9652148,88.4988938 Z M5.20393668,66.4454285 C7.25702368,71.8977513 10.4467688,76.8699843 14.5476019,80.9954699 L15.8871898,82.3431005 L15.8871897,72.487913 C12.6420194,69.9445249 9.03761921,67.9054225 5.20393668,66.4454285 Z M10.6409969,52.1874069 C11.6225394,56.7152653 13.4026064,61.0815407 15.8871897,65.1013958 L15.8871897,64.2326424 C15.8871897,63.1022701 16.7963594,62.1876314 17.9237108,62.1876314 L22.2164947,62.1876314 L21.8371746,61.5333058 C18.6250252,57.7259804 14.8382406,54.5558938 10.6409969,52.1874069 Z M34.1121887,13.5727468 C34.0540475,19.3996228 35.2293535,25.1979832 37.5593776,30.5377636 L38.473932,32.6282823 C39.7995536,31.0141158 41.4357219,29.6683922 43.3033746,28.6518477 L43.3033746,25.8451377 C40.9858073,21.1617472 37.871194,16.9921754 34.1121887,13.5727468 Z M84.0793613,62.1876314 C85.2045577,62.1876314 86.1158823,63.1031718 86.1158823,64.2326424 L86.1158823,65.1000358 C88.5980484,61.0804556 90.3779252,56.7146442 91.3615235,52.1873937 C87.1525806,54.5611179 83.3612308,57.7371864 80.1884253,61.4944455 L79.7865773,62.1876314 L84.0793613,62.1876314 Z M78.0356248,118.829646 L78.0356248,120.51418 L23.9796458,120.51418 L23.9796458,118.829646 C23.9796458,115.735656 26.4882851,113.219756 29.5702525,113.219756 L72.4450181,113.219756 C75.5269855,113.219756 78.0356248,115.735656 78.0356248,118.829646 Z M65.2356899,66.274594 C64.1089678,66.274594 63.1991688,65.3605846 63.1991688,64.2326424 L63.1991688,42.9782081 C63.1991688,39.6861576 61.9338237,36.6059655 59.6339514,34.2927625 C57.3317411,31.9801541 54.2686984,30.7077595 51.0000112,30.7077595 C44.275201,30.7077595 38.8039032,36.2113354 38.8039032,42.9782081 L38.8039032,64.2326424 C38.8039032,65.3603153 37.8913187,66.274594 36.7643326,66.274594 L19.9602318,66.274594 L19.9602318,84.4149908 L21.9431247,84.4149908 C23.0698468,84.4149908 23.9796458,85.3290001 23.9796458,86.4569423 L23.9796458,110.961303 C25.6040468,109.785719 27.5368413,109.135853 29.5702525,109.135853 L67.8925513,109.135853 L67.8925513,76.2302481 L59.5755743,76.2302481 C58.447958,76.2302481 57.5390533,75.3183983 57.5390533,74.1882966 L57.5390533,42.9782081 C57.5390533,39.3496927 54.6074,36.4015125 51.0000112,36.4015125 C47.3952344,36.4015125 44.4640188,39.3501333 44.4640188,42.9782081 L44.4640188,74.1882966 C44.4640188,75.3175 43.5529603,76.2302481 42.4274978,76.2302481 L34.1074711,76.2302481 L34.1074711,92.6830505 C34.1074711,93.8109927 33.1976721,94.725002 32.0709501,94.725002 C30.9442281,94.725002 30.0344291,93.8109927 30.0344291,92.6830505 L30.0344291,74.1882966 C30.0344291,73.0603544 30.9442281,72.1463451 32.0709501,72.1463451 L40.3909768,72.1463451 L40.3909768,42.9782081 C40.3909768,37.0970686 45.1481301,32.3145499 51.0000112,32.3145499 C56.8524249,32.3145499 61.6120953,37.0976044 61.6120953,42.9782081 L61.6120953,72.1463451 L69.9290723,72.1463451 C71.0557944,72.1463451 71.9655934,73.0603544 71.9655934,74.1882966 L71.9655934,109.135853 L72.4450181,109.135853 C74.4784293,109.135853 76.4112238,109.785719 78.0356248,110.961303 L78.0356248,86.4569423 C78.0356248,85.3283703 78.9460544,84.4149908 80.0751955,84.4149908 L82.0428403,84.4149908 L82.0428403,66.274594 L65.2356899,66.274594 Z M95.2477436,148.457966 C95.2477436,145.239834 92.6428061,142.618613 89.4467123,142.618613 C89.213544,142.618613 88.9875589,142.573053 88.7669479,142.488957 C88.546871,142.573236 88.3227896,142.618613 88.0896264,142.618613 L80.0751955,142.618613 C78.9460544,142.618613 78.0356248,141.705233 78.0356248,140.576661 L78.0356248,124.598083 L23.9796458,124.598083 L23.9796458,140.576661 C23.9796458,141.704604 23.0698468,142.618613 21.9431247,142.618613 L13.9286938,142.618613 C13.6952026,142.618613 13.4714015,142.573269 13.2496008,142.488699 C13.0293083,142.573144 12.8050083,142.618613 12.5716079,142.618613 C9.37289855,142.618613 6.76752702,145.239397 6.76752702,148.457966 L6.76752702,149.916097 L95.2477436,149.916097 L95.2477436,148.457966 Z M99.4312751,61.2929825 C100.141093,61.1047214 100.897278,61.3048382 101.402221,61.8195747 C101.919612,62.3345546 102.12024,63.0933047 101.928696,63.8006318 C99.8714416,71.3817498 95.8620646,78.3288257 90.3395904,83.881574 L89.3478584,84.8765195 C89.8264999,85.2473021 90.1261474,85.8179852 90.1261474,86.4569423 L90.1261474,138.574905 C95.2642517,138.927713 99.3238353,143.227955 99.3238353,148.457966 L99.3238353,151.958048 C99.3238353,153.085091 98.4118808,154 97.2873142,154 L4.731006,154 C3.60401991,154 2.69143535,153.085721 2.69143535,151.958048 L2.69143535,148.457966 C2.69143535,143.227955 6.75101893,138.927713 11.8891232,138.574905 L11.8891232,86.4569423 C11.8891232,85.8211404 12.1849743,85.2531362 12.6588916,84.8822603 L11.6630785,83.8811691 C6.13926217,78.3270709 2.12793185,71.379358 0.0713261929,63.8006318 C-0.120217205,63.0933047 0.0804106871,62.3345546 0.596369864,61.8210051 C1.11180133,61.3039035 1.86057055,61.1051567 2.5727975,61.2940745 C5.38284094,62.064096 8.1332488,63.1296011 10.793338,64.4687184 C8.24541266,59.5815339 6.59755464,54.2693455 5.95195005,48.8113851 C5.866242,48.0825534 6.17749896,47.3607223 6.76579137,46.9292732 C7.35310657,46.4944708 8.11880905,46.4094898 8.79879967,46.7013077 C11.4930885,47.8939643 14.0964651,49.3985727 16.5969066,51.1899395 C14.7755268,46.2719131 13.8112499,41.0690281 13.7616282,35.8307453 C13.7534979,35.0966457 14.1394685,34.4170329 14.7713388,34.0489529 C15.4041877,33.6785948 16.182609,33.676341 16.8168232,34.0416844 C18.5278511,35.032787 20.1980451,36.2014528 21.9495501,37.6087699 C20.295774,32.8998204 19.4187226,27.9632394 19.3699001,23.0052683 C19.361767,22.2709209 19.7478826,21.5919031 20.3835488,21.2198976 C21.0158311,20.8515764 21.7942649,20.8493225 22.4283272,21.2163131 C26.2356952,23.4238047 29.7165058,26.2356859 32.7767277,29.5447241 C30.4212919,23.0714305 29.5602112,16.1081549 30.2840339,9.23543873 C30.3573576,8.50799941 30.8201326,7.87386843 31.492158,7.57788429 C32.1625259,7.28672368 32.9465631,7.37538416 33.5230612,7.81121178 C37.3850138,10.6873322 40.7772625,14.2524509 43.6043994,18.3559547 C44.2883831,12.230035 46.20072,6.3048083 49.2311521,0.975799206 C49.9667883,-0.325116986 52.0321294,-0.325116986 52.7714119,0.974902943 C55.7988718,6.30369645 57.7115033,12.2313829 58.3980568,18.3565394 C61.2223142,14.2563546 64.616587,10.6882102 68.4767683,7.8113555 C69.0618275,7.37521544 69.8419279,7.28687247 70.5102706,7.57893672 C71.1798898,7.87386843 71.6426648,8.50799941 71.7157534,9.23315758 C72.4396262,16.1063918 71.5792021,23.0696621 69.2256215,29.5439889 C72.2834473,26.2359409 75.7645133,23.4237006 79.5753914,21.2141906 C80.2126937,20.8517468 80.9894611,20.8528696 81.6204118,21.2204164 C82.2545842,21.5915489 82.6382631,22.2702274 82.6301317,23.0043584 C82.5840292,27.9614666 81.7078118,32.8982318 80.0535297,37.6087356 C81.8039832,36.2021761 83.4743117,35.0328381 85.1854908,34.0403649 C85.8194531,33.6775094 86.5968393,33.6808856 87.2265596,34.0477167 C87.8618707,34.4154299 88.2465456,35.0947418 88.2384052,35.8296542 C88.1915344,41.0685317 87.2276387,46.2713029 85.4042584,51.1891384 C87.9054989,49.3973949 90.5098056,47.8929394 93.2106379,46.6985414 C93.8886834,46.4093365 94.6582935,46.4946271 95.236795,46.9289141 C95.8236014,47.3622684 96.133627,48.0838583 96.0480315,48.8117317 C95.4026181,54.268075 93.7551952,59.5805537 91.2086797,64.4692468 C93.8683323,63.1302516 96.6191995,62.0642449 99.4312751,61.2929825 Z" id="Combined-Shape"></path>
                </g>
                <g id="noun_gameboy_966752" transform="translate(63.257042, 68.564410) rotate(30.000000) translate(-63.257042, -68.564410) translate(22.257042, 13.064410)">
                    <path d="M73.2142857,0 L8.78571429,0 C3.93349827,0 0,3.92339943 0,8.76315789 L0,102.236842 C0,107.076601 3.93349827,111 8.78571429,111 L61.5,111 C72.8218374,111 82,101.845401 82,90.5526316 L82,8.76315789 C82,3.92339943 78.0665017,0 73.2142857,0 Z M8.78571429,105.157895 C7.16830895,105.157895 5.85714286,103.850095 5.85714286,102.236842 L5.85714286,8.76315789 C5.85714286,7.14990507 7.16830895,5.84210526 8.78571429,5.84210526 L73.2142857,5.84210526 C74.8316911,5.84210526 76.1428571,7.14990507 76.1428571,8.76315789 L76.1428571,90.5526316 C76.1206826,91.9199785 75.9037507,93.2772392 75.4985714,94.5836842 L69.6414286,88.7415789 C68.4930708,87.5961694 66.6312149,87.5961694 65.4828571,88.7415789 C64.3344994,89.8869885 64.3344994,91.7440642 65.4828571,92.8894737 L72.8042857,100.192105 C72.2855706,100.802289 71.717469,101.368932 71.1057143,101.886316 L63.7842857,94.5836842 C62.6359279,93.4382748 60.7740721,93.4382748 59.6257144,94.5836843 C58.4773566,95.7290938 58.4773566,97.5861694 59.6257143,98.7315789 L65.4828571,104.573684 C64.1730494,104.977823 62.8122951,105.194198 61.4414286,105.216316 L8.78571429,105.157895 Z" id="Shape" fill="#182A46" fill-rule="nonzero"></path>
                    <path d="M14.95,59 L68.05,59 C69.67924,59 71,57.6848365 71,56.0625 L71,14.9375 C71,13.3151635 69.67924,12 68.05,12 L14.95,12 C13.32076,12 12,13.3151635 12,14.9375 L12,56.0625 C12,57.6848365 13.32076,59 14.95,59 Z M17.9,17.875 L65.1,17.875 L65.1,53.125 L17.9,53.125 L17.9,17.875 Z" id="Shape" fill="#F2907B" fill-rule="nonzero"></path>
                    <path d="M32.125,73 L26.375,73 L26.375,67 C26.375,65.3431458 25.0878187,64 23.5,64 C21.9121813,64 20.625,65.3431458 20.625,67 L20.625,73 L14.875,73 C13.2871813,73 12,74.3431458 12,76 C12,77.6568542 13.2871813,79 14.875,79 L20.625,79 L20.625,85 C20.625,86.6568542 21.9121813,88 23.5,88 C25.0878187,88 26.375,86.6568542 26.375,85 L26.375,79 L32.125,79 C33.7128187,79 35,77.6568542 35,76 C35,74.3431458 33.7128187,73 32.125,73 Z" id="Path" fill="#182A46"></path>
                    <path d="M53,76 C49.6862915,76 47,78.6862915 47,82 C47,85.3137085 49.6862915,88 53,88 C56.3137085,88 59,85.3137085 59,82 C59,78.6862915 56.3137085,76 53,76 Z" id="Shape" fill="#F2907B" fill-rule="nonzero"></path>
                    <path d="M64,64 C60.6862915,64 58,66.6862915 58,70 C58,73.3137085 60.6862915,76 64,76 C67.3137085,76 70,73.3137085 70,70 C70,66.6862915 67.3137085,64 64,64 Z" id="Shape" fill="#182A46" fill-rule="nonzero"></path>
                </g>
                <g id="Group" transform="translate(190.500000, 610.500000) scale(-1, 1) translate(-190.500000, -610.500000) translate(99.000000, 580.000000)" fill-rule="nonzero">
                    <path d="M49.3972028,24.4131253 C50.460355,24.4131253 51.3463152,23.5271651 51.3463152,22.4640129 L51.3463152,14.8447552 C51.3463152,14.3131791 51.1691232,13.781603 50.6375471,13.4272189 C50.105971,13.0728349 49.5743948,12.8956428 49.0428187,13.0728349 L15.9079075,20.6920925 C15.0219473,20.8692846 14.3131791,21.7552448 14.4903712,22.818397 C14.6675632,23.7043572 15.3763314,24.4131253 16.4394836,24.4131253 L49.3972028,24.4131253 Z M47.6252824,17.1482517 L47.6252824,20.5149005 L32.9183432,20.5149005 L47.6252824,17.1482517 Z" id="Shape" fill="#182A46"></path>
                    <path d="M111.945992,21.4008607 L92.8092523,12.1868747 C92.6320602,12.0096826 92.2776762,12.0096826 91.9232921,12.0096826 L66.0532544,12.0096826 C64.9901022,12.0096826 64.104142,12.8956428 64.104142,13.9587951 L63.92695,22.995589 C63.92695,23.5271651 64.104142,24.0587413 64.4585261,24.4131253 C64.8129102,24.7675094 65.3444863,24.9447015 65.8760624,24.9447015 L111.060032,24.9447015 C111.945992,24.9447015 112.654761,24.4131253 112.831953,23.5271651 C113.186337,22.6412049 112.654761,21.7552448 111.945992,21.4008607 Z M67.8251748,21.2236686 L67.8251748,15.9079075 L91.568908,15.9079075 L102.732006,21.2236686 L67.8251748,21.2236686 Z" id="Shape" fill="#F2907B"></path>
                    <path d="M179.101775,31.6779989 L175.912318,31.6779989 L175.912318,31.1464228 C175.912318,28.4885422 174.140398,26.3622378 171.65971,25.6534696 L158.547499,22.2868209 C158.193115,22.2868209 158.015923,22.1096288 157.661538,22.1096288 L118.856482,18.9201721 C118.67929,18.9201721 118.324906,18.9201721 118.147714,18.7429801 L95.4671329,7.04830554 C94.7583647,6.69392146 93.6952125,6.33953739 92.8092523,6.33953739 L51.7006993,6.33953739 C51.3463152,6.33953739 50.8147391,6.33953739 50.460355,6.51672942 L32.209575,10.5921463 L13.2500269,0.492200108 C12.7184508,0.13781603 12.0096826,0.13781603 11.4781065,0.492200108 C10.9465304,0.846584185 10.5921463,1.3781603 10.5921463,2.08692846 L10.5921463,4.567617 L2.97288865,0.315008069 C2.44131253,-0.0393760086 1.73254438,-0.0393760086 1.02377622,0.315008069 C0.492200108,0.669392146 0.13781603,1.20096826 0.13781603,1.90973642 L0.13781603,31.855191 C0.13781603,32.3867671 0.315008069,32.9183432 0.846584185,33.2727273 L6.69392146,38.0569123 L6.69392146,40.7147929 C6.69392146,43.9042496 9.17461001,46.3849381 12.3640667,46.3849381 L20.5149005,46.3849381 C21.9324368,54.5357719 29.0201183,60.9146853 37.7025282,60.9146853 C45.67617,60.9146853 52.2322754,55.5989242 54.3585799,48.3340506 L60.0287251,54.0041958 C60.3831092,54.3585799 60.9146853,54.5357719 61.4462614,54.5357719 L126.47574,54.5357719 C127.007316,54.5357719 127.538892,54.3585799 127.893276,54.0041958 L130.373964,51.5235073 C132.677461,57.0164605 138.170414,60.9146853 144.549328,60.9146853 C150.573857,60.9146853 155.889618,57.3708445 158.370307,52.2322754 L170.596557,52.2322754 C173.786014,52.2322754 176.266703,49.7515869 176.266703,46.5621302 L176.266703,41.7779451 L179.456159,41.7779451 C181.405272,41.7779451 182.822808,40.1832168 182.822808,38.4112964 L182.822808,34.8674556 C182.468424,33.2727273 181.050888,31.6779989 179.101775,31.6779989 Z M14.1359871,5.45357719 L26.5394298,12.0096826 L24.4131253,12.5412587 L14.3131791,7.04830554 L14.3131791,5.45357719 L14.1359871,5.45357719 Z M3.6816568,31.3236148 L3.6816568,5.45357719 L18.7429801,13.604411 L10.9465304,15.3763314 C8.46584185,15.9079075 6.51672942,18.211404 6.51672942,20.8692846 L6.51672942,33.6271114 L3.6816568,31.3236148 Z M10.2377622,41.069177 L10.2377622,20.8692846 C10.2377622,19.9833244 10.9465304,19.2745562 11.6552985,19.0973642 L51.1691232,10.4149543 C51.3463152,10.4149543 51.3463152,10.4149543 51.5235073,10.4149543 L57.3708445,10.4149543 L57.3708445,22.818397 C57.3708445,25.2990855 58.4339968,27.7797741 60.2059172,29.5516945 L74.7356643,44.0814416 L54.890156,44.0814416 C54.890156,44.0814416 54.890156,44.0814416 54.890156,44.0814416 C54.890156,34.5130715 47.0937063,26.7166218 37.5253362,26.7166218 C28.1341581,26.7166218 20.6920925,33.9814954 20.1605164,43.1954814 L12.1868747,43.1954814 C11.1237224,43.0182894 10.2377622,42.1323292 10.2377622,41.069177 Z M78.8110812,47.6252824 L78.8110812,50.9919311 L71.3690156,50.9919311 L71.3690156,47.6252824 L78.8110812,47.6252824 Z M37.5253362,57.5480366 C30.0832706,57.5480366 23.8815492,51.3463152 23.8815492,43.9042496 C23.8815492,36.462184 30.0832706,30.2604626 37.5253362,30.2604626 C44.9674018,30.2604626 51.1691232,36.462184 51.1691232,43.9042496 C51.1691232,51.3463152 44.9674018,57.5480366 37.5253362,57.5480366 Z M58.4339968,47.6252824 L67.6479828,47.6252824 L67.6479828,50.9919311 L61.8006455,50.9919311 L58.4339968,47.6252824 Z M125.412587,51.1691232 L82.532114,51.1691232 L82.532114,47.8024744 L128.779236,47.8024744 L125.412587,51.1691232 Z M144.194944,57.5480366 C137.81603,57.5480366 132.500269,52.2322754 132.500269,45.853362 C132.500269,39.4744486 137.81603,34.1586875 144.194944,34.1586875 C150.573857,34.1586875 155.889618,39.4744486 155.889618,45.853362 C155.889618,52.2322754 150.573857,57.5480366 144.194944,57.5480366 Z M144.194944,30.2604626 C136.398494,30.2604626 129.842388,36.1077999 128.956428,43.9042496 L127.3617,43.9042496 C128.24766,35.3990317 135.512534,28.8429263 144.194944,28.8429263 C153.586122,28.8429263 161.205379,36.462184 161.205379,45.853362 C161.205379,46.9165143 161.028187,47.8024744 160.850995,48.8656267 L159.256267,48.8656267 C159.433459,47.9796665 159.610651,46.9165143 159.610651,45.853362 C159.610651,37.3481442 152.700161,30.2604626 144.194944,30.2604626 Z M172.191286,46.9165143 C172.191286,47.9796665 171.305325,48.8656267 170.242173,48.8656267 L164.74922,48.8656267 C164.926412,47.9796665 164.926412,46.9165143 164.926412,45.853362 C164.926412,34.3358795 155.535234,25.1218935 144.194944,25.1218935 C138.170414,25.1218935 132.854653,27.7797741 128.956428,31.855191 C128.956428,31.855191 128.779236,31.855191 128.779236,31.855191 L83.4180742,31.855191 C82.354922,31.855191 81.4689618,32.7411512 81.4689618,33.8043034 C81.4689618,34.8674556 82.354922,35.7534158 83.4180742,35.7534158 L126.298548,35.7534158 C125.766971,36.639376 125.235395,37.7025282 124.881011,38.5884884 L105.212695,38.5884884 C104.149543,38.5884884 103.263583,39.4744486 103.263583,40.5376009 C103.263583,41.6007531 104.149543,42.4867133 105.212695,42.4867133 L123.817859,42.4867133 C123.640667,43.0182894 123.640667,43.7270576 123.640667,44.2586337 L80.0514255,44.2586337 L62.8637977,27.0710059 C61.8006455,26.0078537 61.2690694,24.5903174 61.2690694,22.995589 L61.2690694,10.5921463 L92.8092523,10.5921463 C93.1636364,10.5921463 93.3408284,10.5921463 93.6952125,10.7693384 L116.375793,22.4640129 C117.084562,22.818397 117.79333,22.995589 118.502098,22.995589 L157.307154,26.1850457 C157.484346,26.1850457 157.484346,26.1850457 157.661538,26.1850457 L170.773749,29.5516945 C171.65971,29.7288865 172.191286,30.4376547 172.191286,31.3236148 L172.191286,46.9165143 Z M178.747391,38.4112964 L175.912318,38.4112964 L175.912318,35.5762238 L178.747391,35.5762238 L178.747391,38.4112964 Z" id="Shape" fill="#182A46"></path>
                    <path d="M37.5253362,34.8674556 C32.5639591,34.8674556 28.4885422,38.9428725 28.4885422,43.9042496 C28.4885422,48.8656267 32.5639591,52.9410436 37.5253362,52.9410436 C42.4867133,52.9410436 46.5621302,48.8656267 46.5621302,43.9042496 C46.5621302,38.9428725 42.4867133,34.8674556 37.5253362,34.8674556 Z M37.5253362,49.0428187 C34.6902636,49.0428187 32.3867671,46.7393222 32.3867671,43.9042496 C32.3867671,41.069177 34.6902636,38.7656805 37.5253362,38.7656805 C40.3604088,38.7656805 42.6639053,41.069177 42.6639053,43.9042496 C42.6639053,46.7393222 40.3604088,49.0428187 37.5253362,49.0428187 Z" id="Shape" fill="#F2907B"></path>
                    <path d="M144.194944,38.4112964 C140.119527,38.4112964 136.752878,41.7779451 136.752878,45.853362 C136.752878,49.9287789 140.119527,53.2954276 144.194944,53.2954276 C148.27036,53.2954276 151.637009,49.9287789 151.637009,45.853362 C151.637009,41.6007531 148.27036,38.4112964 144.194944,38.4112964 Z M144.194944,49.3972028 C142.245831,49.3972028 140.473911,47.8024744 140.473911,45.67617 C140.473911,43.5498655 142.068639,41.9551372 144.194944,41.9551372 C146.321248,41.9551372 147.915976,43.5498655 147.915976,45.67617 C147.915976,47.8024744 146.321248,49.3972028 144.194944,49.3972028 Z" id="Shape" fill="#F2907B"></path>
                </g>
            </g>
        </g>
    </g>
</svg>