<?xml version="1.0" encoding="UTF-8"?>
<svg width="621px" height="412px" viewBox="0 0 621 412" version="1.1" xmlns="http://www.w3.org/2000/svg" xmlns:xlink="http://www.w3.org/1999/xlink">
    <!-- Generator: sketchtool 52.6 (67491) - http://www.bohemiancoding.com/sketch -->
    <title>D4F73708-B8F9-4913-B006-9A40F17C0DD0</title>
    <desc>Created with sketchtool.</desc>
    <g id="Page-1" stroke="none" stroke-width="1" fill="none" fill-rule="evenodd">
        <g id="nar_trans_A00" transform="translate(-771.000000, -335.000000)">
            <g id="Group-14" transform="translate(771.000000, 335.000000)">
                <path d="M4.5,187.5 L178.5,187.5 L178.5,4.5 L4.5,4.5 L4.5,187.5 Z" id="Rectangle" stroke="#F3E6D3" stroke-width="9"></path>
                <path d="M222,188 L397,188 L397,4 L222,4 L222,188 Z" id="Rectangle-Copy-6" stroke="#F3E6D3" stroke-width="8" transform="translate(309.500000, 96.000000) scale(-1, -1) translate(-309.500000, -96.000000) "></path>
                <path d="M442,188 L617,188 L617,4 L442,4 L442,188 Z" id="Rectangle-Copy-7" stroke="#F3E6D3" stroke-width="8" transform="translate(529.500000, 96.000000) scale(-1, 1) translate(-529.500000, -96.000000) "></path>
                <path d="M4,408 L179,408 L179,224 L4,224 L4,408 Z" id="Rectangle-Copy-2" stroke="#F3E6D3" stroke-width="8" transform="translate(91.500000, 316.000000) scale(-1, 1) translate(-91.500000, -316.000000) "></path>
                <path d="M222,408 L397,408 L397,224 L222,224 L222,408 Z" id="Rectangle-Copy-3" stroke="#F3E6D3" stroke-width="8" transform="translate(309.500000, 316.000000) scale(1, -1) translate(-309.500000, -316.000000) "></path>
                <path d="M442,408 L617,408 L617,224 L442,224 L442,408 Z" id="Rectangle-Copy-4" stroke="#F3E6D3" stroke-width="8" transform="translate(529.500000, 316.000000) scale(-1, 1) translate(-529.500000, -316.000000) "></path>
                <g id="noun_Millennium-Falcon_2202283" transform="translate(251.000000, 38.000000)">
                    <g id="Group">
                        <path d="M40.7421711,64.7753754 C39.3436718,66.1745746 38.5776888,68.0266266 38.5776888,70.0006006 C38.5776888,71.9745746 39.3436718,73.8324324 40.7421711,75.2258258 C42.1812906,76.6656657 44.0730365,77.3855856 45.9647824,77.3855856 C47.8565283,77.3855856 49.754077,76.6656657 51.1873937,75.2258258 C52.5858929,73.8266266 53.3518759,71.9745746 53.3518759,70.0006006 C53.3518759,68.0266266 52.5858929,66.1687688 51.1873937,64.7753754 C48.3091546,61.8898899 43.6204102,61.8898899 40.7421711,64.7753754 Z M48.4542271,72.4854855 C47.0789395,73.8614615 44.8448224,73.8614615 43.4695348,72.4854855 C42.808004,71.8236236 42.4366183,70.9353353 42.4366183,69.9947948 C42.4424212,69.0542543 42.808004,68.1717718 43.4695348,67.5041041 C44.1542771,66.819019 45.0595298,66.4764765 45.9589795,66.4764765 C46.8584292,66.4764765 47.7636818,66.8248248 48.4542271,67.5041041 C49.1157579,68.165966 49.4871436,69.0542543 49.4871436,69.9947948 C49.4871436,70.9353353 49.1157579,71.8178178 48.4542271,72.4854855 Z" id="Shape" fill="#F3E6D3" fill-rule="nonzero"></path>
                        <circle id="Oval" fill="#F3E6D3" transform="translate(24.741426, 79.645277) rotate(-45.000000) translate(-24.741426, -79.645277) " cx="24.7414259" cy="79.6452772" r="2.07198118"></circle>
                        <circle id="Oval" fill="#F3E6D3" transform="translate(82.613908, 14.027778) rotate(-45.000000) translate(-82.613908, -14.027778) " cx="82.6139077" cy="14.0277784" r="2.07198118"></circle>
                        <circle id="Oval" fill="#F3E6D3" transform="translate(69.110486, 19.817760) rotate(-45.000000) translate(-69.110486, -19.817760) " cx="69.1104864" cy="19.8177599" r="2.07198118"></circle>
                        <circle id="Oval" fill="#F3E6D3" transform="translate(101.905264, 33.329755) rotate(-45.000000) translate(-101.905264, -33.329755) " cx="101.905264" cy="33.3297552" r="2.07198118"></circle>
                        <circle id="Oval" fill="#F3E6D3" transform="translate(96.117989, 46.835246) rotate(-45.000000) translate(-96.117989, -46.835246) " cx="96.1179894" cy="46.8352456" r="2.07198118"></circle>
                        <circle id="Oval" fill="#F3E6D3" transform="translate(13.171587, 79.643636) rotate(-45.000000) translate(-13.171587, -79.643636) " cx="13.171587" cy="79.6436365" r="2.07198118"></circle>
                        <circle id="Oval" fill="#F3E6D3" transform="translate(20.883189, 95.083608) rotate(-45.000000) translate(-20.883189, -95.083608) " cx="20.8831893" cy="95.083608" r="2.07198118"></circle>
                        <circle id="Oval" fill="#F3E6D3" transform="translate(36.318525, 102.806968) rotate(-45.000000) translate(-36.318525, -102.806968) " cx="36.3185247" cy="102.806968" r="2.07198118"></circle>
                        <circle id="Oval" fill="#F3E6D3" transform="translate(28.606121, 87.360376) rotate(-45.000000) translate(-28.606121, -87.360376) " cx="28.6061205" cy="87.3603762" r="2.07198118"></circle>
                        <circle id="Oval" fill="#F3E6D3" transform="translate(36.319584, 91.225230) rotate(-45.000000) translate(-36.319584, -91.225230) " cx="36.3195838" cy="91.2252297" r="2.07198118"></circle>
                        <path d="M115.477739,24.3379379 L106.970685,15.8266266 C106.663132,15.5189189 106.245323,15.3447447 105.810105,15.3447447 C105.374887,15.3447447 104.957079,15.5189189 104.649525,15.8266266 L92.3125563,28.1697698 L87.8211106,23.6760761 L100.152276,11.3329329 C100.796398,10.6884885 100.796398,9.64924925 100.152276,9.0048048 L91.6394197,0.493493493 C91.1577789,0.0116116116 90.4324162,-0.121921922 89.8057029,0.150950951 L27.2098049,27.9897898 C27.145973,28.0188188 27.087944,28.0478478 27.0241121,28.0884885 C24.5868934,29.1973974 22.2251126,30.5327327 20.0026013,32.0538539 L19.4571286,32.4312312 C19.0973487,32.6808809 18.8478239,33.0582583 18.7723862,33.4878879 C18.6911456,33.9175175 18.7897949,34.3645646 19.0393197,34.7245245 L19.4281141,35.2876877 L11.2692346,43.4506507 L10.7063532,43.0616617 C10.3465733,42.812012 9.89974987,42.7191191 9.47033517,42.7945946 C9.04092046,42.8758759 8.65792896,43.1197197 8.4142071,43.4796797 L8.03701851,44.0254254 C-4.46243122,62.2556557 -2.17608804,86.849049 13.4743372,102.501502 C15.662031,104.69029 18.076038,106.664264 20.6409205,108.35956 C23.1535768,110.02002 25.8403202,111.442442 28.6257129,112.574575 C31.3762881,113.695095 34.2487244,114.554354 37.1675838,115.123323 C40.0690345,115.692292 43.045923,115.976777 45.9995998,115.976777 C50.5490745,115.976777 55.0521261,115.303303 59.3868934,113.97958 C63.8435218,112.621021 68.0564282,110.583183 71.9153577,107.935736 L72.4608304,107.558358 C72.8206103,107.308709 73.0701351,106.931331 73.1455728,106.501702 C73.2268134,106.072072 73.1281641,105.625025 72.8786393,105.265065 L72.4492246,104.643844 L80.5964982,96.4924925 L81.2174087,96.9221221 C81.5771886,97.1717718 82.024012,97.2646647 82.4534267,97.1891892 C82.8828414,97.1079079 83.2658329,96.8640641 83.5095548,96.5041041 L83.8867434,95.9583584 C85.1865933,94.0656657 86.3413707,92.0800801 87.322061,90.0538539 L93.4963482,93.4908909 C94.1404702,93.8508509 94.9412706,93.7347347 95.4577289,93.218018 L103.564382,85.1073073 C103.628214,85.0434434 103.686243,84.9737738 103.738469,84.8982983 L113.742671,70.8888889 C114.212706,70.2328328 114.137269,69.3387387 113.568584,68.7697698 L106.9997,62.1801802 C106.431016,61.6112112 105.537369,61.5357357 104.881641,62.006006 L97.5873937,67.2196196 L115.814307,26.1783784 C116.092846,25.5513514 115.95938,24.8198198 115.477739,24.3379379 Z M89.0397199,31.4442442 L67.2324162,53.2624625 L62.7409705,48.7687688 L84.5482741,26.9505506 L89.0397199,31.4442442 Z M58.3133567,92.3239239 L59.5725863,94.1469469 C57.8491246,95.1223223 56.0154077,95.9119119 54.1236618,96.4924925 C52.231916,97.0730731 50.2705353,97.4504505 48.2801401,97.613013 L48.2801401,85.7807808 C49.8643322,85.5485485 51.3904952,85.0898899 52.8296148,84.398999 L53.5897949,85.4962963 C53.9785893,86.2394394 54.7561781,86.7445445 55.6498249,86.7445445 C56.9322661,86.7445445 57.9767884,85.7053053 57.9767884,84.4164164 C57.9767884,83.8242242 57.7562781,83.2900901 57.3964982,82.8778779 L56.6653327,81.8154154 C56.8684342,81.6296296 57.05993,81.4554555 57.2398199,81.2812813 C57.2456228,81.2754755 57.2514257,81.2696697 57.2514257,81.2696697 C57.4429215,81.0780781 57.6228114,80.8864865 57.7910955,80.6948949 L70.0178089,89.1655656 L65.1317659,94.0540541 L62.0852426,89.6532533 C61.9981991,89.4964965 61.8995498,89.3513514 61.7834917,89.2178178 L61.766083,89.1945946 C61.3424712,88.7185185 60.7215608,88.4224224 60.0368184,88.4224224 C58.7543772,88.4224224 57.7098549,89.4616617 57.7098549,90.7505506 C57.7098549,91.3601602 57.9361681,91.9059059 58.3133567,92.3239239 Z M60.3617809,76.8630631 C60.5938969,76.3811812 60.7969985,75.8934935 60.9710855,75.4058058 L71.3176588,81.1535536 C70.9462731,81.9953954 70.5342671,82.814014 70.0932466,83.6036036 L60.3617809,76.8630631 Z M59.2766383,61.2164164 C58.6847424,60.3165165 58,59.4746747 57.2398199,58.7141141 C56.4912456,57.9651652 55.6730365,57.2916917 54.7909955,56.7111111 L59.4623312,52.0374374 L63.9537769,56.5311311 L59.2766383,61.2164164 Z M53.9611806,43.4738739 C55.8123062,44.0254254 57.5995998,44.7743744 59.2824412,45.6974975 L50.3285643,54.6442442 C49.6438219,54.4526527 48.9590795,54.3075075 48.2743372,54.2088088 L48.2743372,42.4056056 C50.2067034,42.5623624 52.1158579,42.9223223 53.9611806,43.4738739 Z M48.2743372,37.7783784 L48.2743372,28.7039039 C52.0462231,28.9129129 55.7426713,29.6212212 59.2650325,30.8172172 C62.769985,32.0074074 66.1066533,33.6736737 69.187994,35.7753754 L62.653927,42.3127127 C58.3307654,39.7001001 53.3692846,38.1383383 48.2743372,37.7783784 Z M70.2905453,56.7343343 C71.1203602,58.2496496 71.8051026,59.8520521 72.3331666,61.4950951 C72.8554277,63.1207207 73.2268134,64.8102102 73.4415208,66.5113113 L63.2052026,63.8116116 L70.2905453,56.7343343 Z M89.8173087,5.20780781 L94.7787894,10.1717718 L72.5014507,32.4602603 C68.8630315,29.8766767 64.8938469,27.8446446 60.6983492,26.428028 C56.4506253,24.993994 51.9997999,24.1927928 47.4503252,24.0418418 L89.8173087,5.20780781 Z M33.7438719,30.4688689 C36.9470735,29.4818819 40.277939,28.8838839 43.6610305,28.7039039 L43.6610305,37.7841842 C41.2296148,37.9583584 38.8214107,38.3995996 36.5002501,39.1079079 C34.1326663,39.8278278 31.857929,40.8206206 29.734067,42.0572573 L24.5810905,34.6084084 C27.4593297,32.8434434 30.5406703,31.4558559 33.7438719,30.4688689 Z M21.8537269,50.7833834 L26.7571786,45.8774775 L35.2642321,58.1741742 C35.0611306,58.35996 34.8696348,58.5399399 34.683942,58.7141141 C34.4924462,58.9057057 34.3125563,59.1031031 34.1326663,59.3005005 L21.8537269,50.7833834 Z M31.5677839,63.1381381 C30.8772386,64.5721722 30.4130065,66.0990991 30.1808904,67.6898899 L18.3661831,67.6898899 C18.5286643,65.6984985 18.9058529,63.7361361 19.4861431,61.8434434 C20.0664332,59.9507508 20.8556278,58.1161161 21.8305153,56.3917918 L31.5677839,63.1381381 Z M32.3627814,45.8542543 C34.0978489,44.8788789 35.9431716,44.0892893 37.8581291,43.5029029 C39.7382691,42.9281281 41.688044,42.5565566 43.6610305,42.3997998 L43.6610305,54.2088088 C42.0768384,54.441041 40.5448724,54.8996997 39.1057529,55.5905906 L32.3627814,45.8542543 Z M22.1032516,39.1427427 L24.0878439,42.0166166 L17.9947974,48.1127127 L15.1223612,46.1271271 L22.1032516,39.1427427 Z M6.418009,57.8896897 C7.41610805,54.6326326 8.8146073,51.5091091 10.5844922,48.5945946 L18.0238119,53.7501502 C16.7877939,55.8692693 15.7954977,58.1277277 15.075938,60.4674675 C14.3563782,62.8014014 13.9037519,65.2282282 13.7296648,67.6898899 L4.67713857,67.6898899 C4.86283142,64.3573574 5.44312156,61.0654655 6.418009,57.8896897 Z M43.6552276,111.297297 C33.4943472,110.722523 23.9427714,106.449449 16.7297649,99.2386386 C9.52256128,92.0278278 5.25162581,82.4772773 4.67713857,72.2996997 L30.1808904,72.2996997 C30.6741371,75.7193193 32.2235118,78.8138138 34.683942,81.2754755 C37.1443722,83.7371371 40.2373187,85.2872873 43.6552276,85.7807808 L43.6552276,111.297297 Z M45.9647824,81.3335335 C42.9356678,81.3335335 40.0922461,80.154955 37.9509755,78.0126126 C35.8097049,75.8702703 34.6317159,73.0254254 34.6317159,69.9947948 C34.6317159,66.9641642 35.8097049,64.1193193 37.9509755,61.976977 C40.0922461,59.8346346 42.9356678,58.6560561 45.9647824,58.6560561 C48.9938969,58.6560561 51.8373187,59.8346346 53.9785893,61.976977 C56.1198599,64.1193193 57.2978489,66.9641642 57.2978489,69.9947948 C57.2978489,73.0254254 56.1198599,75.8702703 53.9785893,78.0126126 C51.8373187,80.154955 48.9938969,81.3335335 45.9647824,81.3335335 Z M58.0638319,109.561361 C54.8896448,110.530931 51.5993997,111.117317 48.2743372,111.303103 L48.2743372,102.24024 C50.7289645,102.066066 53.1545773,101.613213 55.4931466,100.893293 C57.8317159,100.173373 60.0890445,99.1805806 62.2071036,97.9439439 L67.36008,105.386987 C64.4412206,107.163564 61.3192596,108.568569 58.0638319,109.561361 Z M69.7856928,100.794595 L67.8011006,97.9207207 L73.8767384,91.842042 L76.7491746,93.8276276 L69.7856928,100.794595 Z M81.3508754,91.4008008 L73.9115558,86.2452452 C74.4396198,85.3395395 74.9270635,84.3931932 75.3738869,83.412012 L83.2890445,87.8128128 C82.6855428,89.0668669 82.0356178,90.2686687 81.3508754,91.4008008 Z M85.0531266,83.5107107 L61.8995498,70.6392392 C61.9053527,70.4418418 61.9111556,70.2328328 61.9111556,70.0006006 C61.9111556,69.4258258 61.8763382,68.8336336 61.8125063,68.2356356 L87.0203102,74.8716717 C86.677939,77.8152152 86.0164082,80.7181181 85.0531266,83.5107107 Z M87.3046523,70.1631632 L78.2115058,67.7653654 C78.0374187,65.2166166 77.5615808,62.6910911 76.8014007,60.2642643 C76.0412206,57.849049 74.9908954,55.5267267 73.6794397,53.3437437 L80.2077039,46.8064064 C82.3663832,49.9821822 84.0608304,53.425025 85.2504252,57.0478478 C86.4864432,60.8158158 87.1769885,64.7753754 87.2930465,68.8046046 C87.2988494,69.2168168 87.3046523,69.6464464 87.3046523,70.1631632 Z M93.7864932,88.3643644 L89.149975,85.7865866 C90.2641321,82.7327327 91.0533267,79.5685686 91.4885443,76.357958 L98.6377189,83.5107107 L93.7864932,88.3643644 Z M105.514157,67.2196196 L108.531666,70.2386386 L106.431016,73.187988 L102.566283,69.3213213 L105.514157,67.2196196 Z M98.7595798,72.0442442 L103.709455,76.9965966 L101.608804,79.9459459 L95.8175088,74.1517518 L98.7595798,72.0442442 Z M91.9005503,68.642042 C91.7670835,64.0612613 90.9662831,59.5617618 89.5271636,55.2828829 C88.1170585,51.0968969 86.0976488,47.1315315 83.5211606,43.4970971 L105.804302,21.2028028 L110.771586,26.1667668 L91.9005503,68.642042 Z" id="Shape" fill="#182A46" fill-rule="nonzero"></path>
                    </g>
                </g>
                <g id="Group" transform="translate(472.000000, 39.000000)" fill-rule="nonzero">
                    <path d="M71.1513605,72.0985976 L70.8206512,72.0930854 C64.9841163,72.0930854 56.0162209,77.1725732 41.8607558,85.4560244 C37.6210349,87.9392683 33.6566744,89.5350488 30.034093,90.2158049 L30.0313256,83.6245976 C30.0313256,82.2754878 28.9298837,81.1758049 27.5738372,81.1758049 L2.71805814,81.1758049 C1.35786047,81.1758049 0.257802326,82.2754878 0.257802326,83.6245976 L0.257802326,96.0022317 C0.257802326,104.171305 6.92456977,110.819012 14.8906512,110.819012 C14.896186,110.819012 14.9017209,110.819012 14.9072558,110.819012 C14.9072558,110.819012 15.1784651,110.847951 15.7056628,110.847951 C18.4343605,110.847951 28.5604302,110.012854 44.4870581,99.2668293 C57.0899884,90.7642683 64.2424419,87.8400488 71.7006977,85.8777073 C75.7231744,84.8152317 78.0298372,82.3168293 78.0298372,79.0274268 C78.0284535,75.2694878 75.0077907,72.2212439 71.1513605,72.0985976 Z M41.7237674,95.2126098 C26.5803256,105.429463 17.395186,105.948988 15.7028953,105.948988 C15.5119419,105.948988 15.3943256,105.94072 15.1424884,105.929695 C9.64911628,105.929695 5.17416279,101.47722 5.17416279,96.0022317 L5.17416279,86.0761463 L25.1121977,86.0761463 L25.1135814,92.9994634 C25.1135814,93.6760854 25.3972442,94.3251463 25.8912326,94.7881707 C26.3879884,95.2525732 27.059093,95.4703049 27.7357326,95.444122 C32.8098372,95.1065 38.398686,93.1662073 44.3528372,89.681122 C49.6054419,86.6080732 54.7127558,83.6177073 59.1724884,81.3136098 C59.5585465,82.279622 60.0954302,83.3420976 60.8384884,84.3866585 C55.6356977,86.5846463 49.7161395,89.8203049 41.7237674,95.2126098 Z M70.4442791,81.1399756 C68.8654535,81.5547683 67.2976977,82.0288171 65.7036512,82.5566098 C64.6326512,81.5423659 63.9864535,80.2221951 63.6031628,79.1610976 C66.6376628,77.8147439 69.1837093,76.9934268 70.9908488,76.9934268 C70.9908488,76.9934268 70.9908488,76.9934268 70.9922326,76.9934268 C72.1780814,77.0320122 73.1107093,77.9249878 73.1107093,79.0288049 C73.112093,80.191878 71.6578023,80.8188902 70.4442791,81.1399756 Z" id="Shape" fill="#F3E6D3"></path>
                    <path d="M116.173488,78.0807073 L107.817198,68.0802073 C112.698965,49.9561098 105.416442,31.2490976 90.7351628,20.8586098 C92.5921163,20.1792317 94.1238953,18.8811098 95.0537558,17.1296098 C96.0486512,15.244439 96.247907,13.0864146 95.6141628,11.0524146 C94.566686,7.69962195 91.4962093,5.44789024 87.9746395,5.44789024 C87.1706977,5.44789024 86.3722907,5.56778049 85.6015581,5.81031707 C83.2008023,6.55032927 81.1307558,8.12819512 79.4841279,9.81079268 C79.0441047,7.49980488 78.2014186,5.0427439 76.6212093,3.09693902 C75.0949651,1.22417073 72.8325814,0.143780488 70.4083023,0.143780488 C68.5776395,0.143780488 66.7912558,0.780439024 65.3701744,1.92559756 C63.711093,3.26781707 62.6733023,5.16952439 62.451907,7.28620732 C62.2457326,9.25681707 62.793686,11.1778171 63.9532442,12.7722195 C45.3809419,13.2807195 29.369907,25.0823293 23.4240581,42.6138659 L10.9166047,46.3097927 C10.1251163,46.5468171 9.50244186,47.1586707 9.26305814,47.9510488 C9.02367442,48.7365366 9.19663953,49.5923049 9.72660465,50.2275854 C12.4622209,53.493561 16.5760233,56.0774024 21.3194186,57.5091951 C23.9042093,58.2891707 26.5249767,58.6791585 29.0405814,58.6791585 C31.139686,58.6791585 33.1640698,58.409061 35.0279419,57.8550854 C38.508,56.8325732 41.1176977,54.9446463 42.6314884,52.4462439 L86.370907,65.6479512 C86.0637209,72.1730122 92.0995116,78.8744634 101.281884,81.6443415 C103.866674,82.4201829 106.488826,82.8143049 109.000279,82.8143049 C111.099384,82.8143049 113.119616,82.5469634 114.977953,81.9929878 C115.772209,81.7642317 116.392116,81.1441098 116.635651,80.3572439 C116.876419,79.5717561 116.703453,78.7159878 116.173488,78.0807073 Z M103.403128,65.6727561 L88.1531395,61.0686951 C91.6387326,47.5927561 89.9921047,33.5325244 83.8262442,22.3138293 C99.2132209,30.5683415 107.521081,48.3245 103.403128,65.6727561 Z M48.4043721,49.0686463 C53.3387209,35.2247683 63.8259419,24.3009756 76.434407,19.9022439 C84.4447674,30.5421585 87.0669186,45.4126829 83.4457209,59.6479268 L48.4043721,49.0686463 Z M87.06,10.4860366 C88.6748023,9.97753659 90.4210581,10.9270122 90.9164302,12.5062561 C91.1599651,13.2903659 91.081093,14.1199512 90.6978023,14.8461829 C90.3172791,15.5724146 89.6738488,16.1043415 88.8906628,16.3427439 C86.6504186,17.0372805 83.2077209,16.3413659 81.0131395,15.5627683 C82.4452907,13.6031829 84.6426395,11.231561 87.06,10.4860366 Z M68.4683256,5.73590244 C69.0231977,5.28803659 69.6943023,5.0482561 70.4069186,5.0482561 C71.3381628,5.0482561 72.2126744,5.46304878 72.7993721,6.18790244 C74.3837326,8.13232927 74.8915581,11.3252683 74.9953372,13.7547683 C72.6333256,13.1622073 69.6057442,12.0060244 68.0158488,10.0491951 C67.4955698,9.41115854 67.256186,8.60913415 67.3419767,7.79884146 C67.4277674,6.98441463 67.8262791,6.25404878 68.4683256,5.73590244 Z M65.2041279,17.6215732 C66.4439419,17.6215732 67.6823721,17.702878 68.922186,17.8186341 C57.5313953,23.7345976 48.3199651,34.5178293 43.6969535,47.6520122 L28.4538837,43.0507073 C34.1534302,27.7447195 48.6257674,17.6215732 65.2041279,17.6215732 Z M33.6317674,53.1628293 C30.4492093,54.0985244 26.5844767,53.9813902 22.7446512,52.8224512 C20.3937093,52.1155122 18.2517093,51.0709512 16.4542558,49.7879878 L25.2270465,47.195878 L37.5753721,50.9179878 C36.6261395,51.882622 35.3226744,52.6598415 33.6317674,53.1628293 Z M102.705733,76.9562195 C96.6325814,75.1234146 92.092593,71.0182073 91.3758256,67.1569146 L103.778116,70.9024512 L109.631256,77.9125854 C107.417302,77.959439 105.056674,77.6659146 102.705733,76.9562195 Z" id="Shape" fill="#182A46"></path>
                </g>
                <g id="Group" transform="translate(309.032774, 316.545123) rotate(-20.000000) translate(-309.032774, -316.545123) translate(257.958839, 281.345519)">
                    <circle id="Oval" fill="#F3E6D3" cx="57.9758189" cy="44.1720525" r="1.38037664"></circle>
                    <circle id="Oval" fill="#F3E6D3" cx="73.159962" cy="44.1720525" r="1.38037664"></circle>
                    <circle id="Oval" fill="#F3E6D3" cx="88.344105" cy="44.1720525" r="1.38037664"></circle>
                    <circle id="Oval" fill="#F3E6D3" cx="95.2459883" cy="44.1720525" r="1.38037664"></circle>
                    <circle id="Oval" fill="#F3E6D3" cx="80.0618452" cy="44.1720525" r="1.38037664"></circle>
                    <circle id="Oval" fill="#F3E6D3" cx="64.8777021" cy="44.1720525" r="1.38037664"></circle>
                    <circle id="Oval" fill="#F3E6D3" cx="60.7365722" cy="49.6935591" r="1.38037664"></circle>
                    <circle id="Oval" fill="#F3E6D3" cx="57.9758189" cy="52.4543124" r="1.38037664"></circle>
                    <circle id="Oval" fill="#F3E6D3" cx="69.0188321" cy="49.6935591" r="1.38037664"></circle>
                    <circle id="Oval" fill="#F3E6D3" cx="77.3010919" cy="49.6935591" r="1.38037664"></circle>
                    <circle id="Oval" fill="#F3E6D3" cx="73.159962" cy="52.4543124" r="1.38037664"></circle>
                    <circle id="Oval" fill="#F3E6D3" cx="84.2029751" cy="49.6935591" r="1.38037664"></circle>
                    <circle id="Oval" fill="#F3E6D3" cx="92.485235" cy="49.6935591" r="1.38037664"></circle>
                    <circle id="Oval" fill="#F3E6D3" cx="88.344105" cy="52.4543124" r="1.38037664"></circle>
                    <circle id="Oval" fill="#F3E6D3" cx="95.2459883" cy="52.4543124" r="1.38037664"></circle>
                    <circle id="Oval" fill="#F3E6D3" cx="80.0618452" cy="52.4543124" r="1.38037664"></circle>
                    <circle id="Oval" fill="#F3E6D3" cx="64.8777021" cy="52.4543124" r="1.38037664"></circle>
                    <circle id="Oval" fill="#F3E6D3" cx="60.7365722" cy="56.5954423" r="1.38037664"></circle>
                    <circle id="Oval" fill="#F3E6D3" cx="69.0188321" cy="56.5954423" r="1.38037664"></circle>
                    <circle id="Oval" fill="#F3E6D3" cx="77.3010919" cy="56.5954423" r="1.38037664"></circle>
                    <circle id="Oval" fill="#F3E6D3" cx="73.159962" cy="60.7365722" r="1.38037664"></circle>
                    <circle id="Oval" fill="#F3E6D3" cx="84.2029751" cy="56.5954423" r="1.38037664"></circle>
                    <circle id="Oval" fill="#F3E6D3" cx="92.485235" cy="56.5954423" r="1.38037664"></circle>
                    <circle id="Oval" fill="#F3E6D3" cx="88.344105" cy="60.7365722" r="1.38037664"></circle>
                    <circle id="Oval" fill="#F3E6D3" cx="80.0618452" cy="60.7365722" r="1.38037664"></circle>
                    <circle id="Oval" fill="#F3E6D3" cx="64.8777021" cy="60.7365722" r="1.38037664"></circle>
                    <circle id="Oval" fill="#F3E6D3" cx="69.0188321" cy="63.4973255" r="1.38037664"></circle>
                    <circle id="Oval" fill="#F3E6D3" cx="77.3010919" cy="63.4973255" r="1.38037664"></circle>
                    <circle id="Oval" fill="#F3E6D3" cx="84.2029751" cy="63.4973255" r="1.38037664"></circle>
                    <path d="M102.147871,39.0911162 C102.147871,39.0911162 102.147871,39.1106715 102.147871,39.1106715 L102.147871,60.6215408 C102.147871,61.6970843 101.263899,62.5770744 100.183489,62.5770744 C98.6119836,62.5770744 97.138697,63.1832898 96.0189992,64.297944 C94.8993013,65.4125981 94.2903429,66.8792483 94.2903429,68.4436751 C94.2903429,68.9521139 94.0939047,69.4801079 93.7206721,69.832104 C93.3474395,70.1841 92.8563439,70.3992087 92.3259607,70.3992087 L62.8602286,70.3992087 C62.3494892,70.3992087 61.8780375,70.2036553 61.5048049,69.8712146 L52.4882909,61.3646436 C52.4490032,61.3059776 52.3900718,61.2668669 52.3507841,61.2082009 C51.9186201,60.6997622 51.3685931,60.6215408 51.0739357,60.6215408 C50.7792784,60.6215408 50.2292514,60.6997622 49.7970873,61.2082009 C49.7577997,61.2668669 49.6988682,61.3255329 49.6595806,61.3646436 L40.6430665,69.8712146 C40.2698339,70.2036553 39.7983822,70.3992087 39.2876429,70.3992087 L9.82191072,70.3992087 C8.74150054,70.3992087 7.85752857,69.5192186 7.85752857,68.4436751 C7.85752857,65.2170447 5.20561268,62.5770744 1.96438214,62.5770744 C0.883971965,62.5770744 -7.10542736e-15,61.6970843 -7.10542736e-15,60.6215408 L-7.10542736e-15,39.1106715 C-7.10542736e-15,39.1106715 -7.10542736e-15,39.0911162 -7.10542736e-15,39.0911162 C-7.10542736e-15,38.8564521 0.0589314643,38.6413434 0.117862929,38.4457901 C0.13750675,38.3871241 0.176794393,38.3480134 0.196438214,38.2893474 C0.235725857,38.2111261 0.255369679,38.1329047 0.294657322,38.0742387 L19.6831091,7.52880426 C19.6634653,7.29414024 19.6438214,7.05947621 19.6438214,6.84436751 C19.6438214,3.67640312 21.9028609,0.860434773 25.0262285,0.175998022 C25.08516,0.156442686 25.1637353,0.13688735 25.2226667,0.13688735 L26.2834331,0.0195553358 C26.3620084,0 26.4405837,0 26.5191589,0 L38.3054518,0 C38.3643833,0 38.4429585,0 38.50189,0 L39.4251496,0.0977766788 C42.8431745,0.743102759 45.1807893,3.57862644 45.1807893,6.84436751 C45.1807893,10.6185473 42.0967093,13.688735 38.3054518,13.688735 L34.1606055,13.688735 L19.2705888,37.1551379 L82.8772826,37.1551379 L67.987266,13.688735 L63.8424197,13.688735 C60.0511621,13.688735 56.9670822,10.6185473 56.9670822,6.84436751 C56.9670822,3.57862644 59.3046969,0.743102759 62.5459274,0.117332015 L63.6459814,0 C63.7049129,0 63.7834882,0 63.8424197,0 L75.6287125,0 C75.7072878,0 75.7858631,0 75.8644384,0.0195553358 L76.9252047,0.13688735 C76.9841362,0.156442686 77.0627115,0.156442686 77.121643,0.175998022 C80.2450106,0.860434773 82.50405,3.67640312 82.50405,6.84436751 C82.50405,7.05947621 82.4844062,7.29414024 82.4647624,7.52880426 L101.83357,38.0742387 C101.872858,38.1329047 101.892502,38.2111261 101.931789,38.2697921 C101.971077,38.3284581 101.990721,38.3675687 102.010365,38.4262348 C102.08894,38.6413434 102.147871,38.8564521 102.147871,39.0911162 Z M70.7177572,10.6967687 L87.5328683,37.1551379 L96.6279576,37.1551379 L78.7520801,8.97589911 C78.4770666,8.52612639 78.3788475,7.99813232 78.4967105,7.48969359 C78.5556419,7.25502956 78.5752857,7.03992087 78.5752857,6.84436751 C78.5752857,5.51460468 77.6520261,4.34128454 76.3358901,4.00884383 L75.5108496,3.91106715 L63.1155983,3.98928849 C61.8976813,4.24350786 60.8958464,5.43638334 60.8958464,6.84436751 C60.8958464,8.46746038 62.2119825,9.77766788 63.8424197,9.77766788 L69.0676762,9.77766788 C69.7355661,9.77766788 70.3641684,10.1296639 70.7177572,10.6967687 Z M23.3957913,8.97589911 L5.51991382,37.1551379 L14.634647,37.1551379 L31.4301143,10.6967687 C31.7837031,10.1296639 32.4123054,9.77766788 33.0801953,9.77766788 L38.3054518,9.77766788 C39.935889,9.77766788 41.252025,8.46746038 41.252025,6.84436751 C41.252025,5.43638334 40.2501901,4.24350786 38.8751226,3.96973316 L38.2268765,3.91106715 L25.7923375,4.00884383 C24.4958453,4.34128454 23.5725857,5.51460468 23.5725857,6.84436751 C23.5725857,7.03992087 23.5922295,7.25502956 23.651161,7.48969359 C23.7690239,7.99813232 23.6708048,8.52612639 23.3957913,8.97589911 Z M38.50189,66.4881416 L46.8898018,58.5682306 C47.4987602,57.9033492 48.2648693,57.4340211 49.1095536,57.1406911 L49.1095536,41.0662051 L15.7150571,41.0662051 L3.92876429,41.0662051 L3.92876429,58.8615606 C7.77895329,59.643774 10.8041018,62.6552957 11.5898546,66.4881416 L38.50189,66.4881416 Z M98.2191072,44.9772722 L98.2191072,41.0662051 L94.2903429,41.0662051 C94.2903429,42.1417485 93.4063709,43.0217387 92.3259607,43.0217387 C91.2455506,43.0217387 90.3615786,42.1417485 90.3615786,41.0662051 L86.4328143,41.0662051 C86.4328143,42.1417485 85.5488423,43.0217387 84.4684322,43.0217387 C83.388022,43.0217387 82.50405,42.1417485 82.50405,41.0662051 L78.5752857,41.0662051 C78.5752857,42.1417485 77.6913138,43.0217387 76.6109036,43.0217387 C75.5304934,43.0217387 74.6465214,42.1417485 74.6465214,41.0662051 L70.7177572,41.0662051 C70.7177572,42.1417485 69.8337852,43.0217387 68.753375,43.0217387 C67.6729648,43.0217387 66.7889929,42.1417485 66.7889929,41.0662051 L62.8602286,41.0662051 C62.8602286,42.1417485 61.9762566,43.0217387 60.8958464,43.0217387 C59.8154363,43.0217387 58.9314643,42.1417485 58.9314643,41.0662051 L55.0027,41.0662051 C55.0027,42.1417485 54.1187281,43.0217387 53.0383179,43.0217387 L53.0383179,46.9328058 C54.1187281,46.9328058 55.0027,47.8127959 55.0027,48.8883394 C55.0027,49.9638828 54.1187281,50.843873 53.0383179,50.843873 L53.0383179,54.7549401 C54.1187281,54.7549401 55.0027,55.6349302 55.0027,56.7104737 C55.0027,57.1798017 54.8062618,57.5904638 54.5508921,57.9424598 C54.8062618,58.1380132 55.0616315,58.3335665 55.2777135,58.5877859 L55.8080967,59.0962246 C56.1223978,58.8420053 56.5152743,58.6660073 56.9670822,58.6660073 C58.0474923,58.6660073 58.9314643,59.5459974 58.9314643,60.6215408 C58.9314643,61.0322029 58.7743137,61.3841989 58.5582317,61.6970843 L59.8547239,62.9095151 C60.1690251,62.7139618 60.50297,62.5770744 60.8958464,62.5770744 C61.9762566,62.5770744 62.8602286,63.4570645 62.8602286,64.532608 C62.8602286,64.884604 62.7423657,65.1974894 62.5852151,65.4908194 L63.6459814,66.4881416 L68.753375,66.4881416 L76.6109036,66.4881416 L84.4684322,66.4881416 L90.5580168,66.4881416 C90.5973045,66.2143669 90.6955236,65.9601475 90.7740988,65.6863728 C90.538373,65.3539321 90.3615786,64.9823807 90.3615786,64.532608 C90.3615786,63.4570645 91.2455506,62.5770744 92.3259607,62.5770744 C92.6009742,62.205523 92.9152754,61.853527 93.2295765,61.5210863 C93.5635215,61.1886456 93.9171103,60.8953155 94.2903429,60.6215408 C94.2903429,59.5459974 95.1743148,58.6660073 96.254725,58.6660073 C96.7065329,58.6660073 97.0797655,58.8420053 97.4137105,59.0766693 C97.688724,58.998448 97.9440937,58.9202266 98.2191072,58.8615606 L98.2191072,52.7994065 L98.2191072,44.9772722 Z" id="Shape" stroke="#182A46" fill="#182A46" fill-rule="nonzero"></path>
                </g>
                <g id="Group" transform="translate(41.000000, 267.000000)">
                    <path d="M79.5636838,13.0603452 C79.0162676,13.020456 78.4849816,13 77.971842,13 C66.7593888,13 62.7137518,22.3708973 62.1562543,27.2271536 L53.2100837,81.6309299 C53.1798397,81.7863956 50.2774253,97.2429553 67.0325928,101.835329 L67.353179,101.895674 C68.020563,101.965225 68.6869388,102 69.3351682,102 C81.2250866,102 85.3372604,90.7655604 85.5066267,90.285867 L85.569131,90.1058541 L94.9750102,30.1094052 L94.9992054,29.8107474 C95.0576771,24.4134297 91.907262,13.9675692 79.5636838,13.0603452 Z M81.6495106,89.0605521 C81.1504848,90.3175738 77.7853375,97.9077756 69.33416,97.9077756 C68.8744515,97.9077756 68.400629,97.8862968 67.9237822,97.8423164 C55.0519423,94.2164889 57.0692161,82.9217041 57.1740619,82.3765514 L61.0886417,58.5688264 C64.1715118,60.9918406 69.4682417,64.0827434 76.4707323,64.0827434 C79.3257644,64.0827434 82.46509,63.5631608 85.8493919,62.2805691 L81.6495106,89.0605521 Z M88.2558049,31.7366806 C86.9785007,33.4161189 84.605356,33.7260274 82.9479856,32.4342305 C81.2936397,31.1373196 80.9891836,28.7286246 82.2634634,27.0502092 C83.5407677,25.3707709 85.9159287,25.0588168 87.5702746,26.3557277 C89.2256287,27.6485474 89.531093,30.0572423 88.2558049,31.7366806 Z" id="Shape" fill="#182A46" fill-rule="nonzero"></path>
                    <path d="M52.8591,67.1432619 L52.8289042,66.9520469 L32.3623597,9.33361433 L32.2394938,9.05707217 C29.682217,4.25510778 21.7667372,-3.45723152 10.1100947,1.71893862 C9.59260016,1.94921908 9.1000953,2.19080795 8.63362135,2.43753701 C-1.55591894,7.86968856 -0.701063781,18.118197 1.14192481,22.6837127 L19.3219139,75.1352275 C19.3698108,75.2873771 24.2063543,90.3645789 41.6543542,86.3069138 L41.9760962,86.2061661 C42.6164567,85.9450446 43.2391161,85.6520538 43.8274147,85.3385023 C54.633367,79.5784067 52.9361515,67.6480284 52.8591,67.1432619 Z M13.765876,46.4108243 L5.04760288,21.2639926 C4.87788133,20.8342728 0.876409501,10.3030539 11.8177225,5.47230449 C22.281108,0.825573801 27.8059088,9.67183876 28.4879187,10.8551102 L37.9996141,37.6313818 C28.9981246,49.6450311 17.2946265,47.4337219 13.765876,46.4108243 Z" id="Shape" fill="#F3E6D3" fill-rule="nonzero"></path>
                    <path d="M22.6456774,9.05346444 C24.8249624,9.40936189 26.3030399,11.4637639 25.9471078,13.6428366 C25.59011,15.8240404 23.5365734,17.2998427 21.355157,16.9482075 C19.1737406,16.5891134 17.6977944,14.5336458 18.0526609,12.3545731 C18.4096587,10.1733693 20.4653266,8.69543587 22.6456774,9.05346444 Z" id="Path" fill="#F2907B"></path>
                </g>
                <g id="noun_gameboy_966752" transform="translate(51.000000, 39.000000)">
                    <path d="M73.2142857,0 L8.78571429,0 C3.93349827,0 0,3.92339943 0,8.76315789 L0,102.236842 C0,107.076601 3.93349827,111 8.78571429,111 L61.5,111 C72.8218374,111 82,101.845401 82,90.5526316 L82,8.76315789 C82,3.92339943 78.0665017,0 73.2142857,0 Z M8.78571429,105.157895 C7.16830895,105.157895 5.85714286,103.850095 5.85714286,102.236842 L5.85714286,8.76315789 C5.85714286,7.14990507 7.16830895,5.84210526 8.78571429,5.84210526 L73.2142857,5.84210526 C74.8316911,5.84210526 76.1428571,7.14990507 76.1428571,8.76315789 L76.1428571,90.5526316 C76.1206826,91.9199785 75.9037507,93.2772392 75.4985714,94.5836842 L69.6414286,88.7415789 C68.4930708,87.5961694 66.6312149,87.5961694 65.4828571,88.7415789 C64.3344994,89.8869885 64.3344994,91.7440642 65.4828571,92.8894737 L72.8042857,100.192105 C72.2855706,100.802289 71.717469,101.368932 71.1057143,101.886316 L63.7842857,94.5836842 C62.6359279,93.4382748 60.7740721,93.4382748 59.6257144,94.5836843 C58.4773566,95.7290938 58.4773566,97.5861694 59.6257143,98.7315789 L65.4828571,104.573684 C64.1730494,104.977823 62.8122951,105.194198 61.4414286,105.216316 L8.78571429,105.157895 Z" id="Shape" fill="#182A46" fill-rule="nonzero"></path>
                    <path d="M14.95,59 L68.05,59 C69.67924,59 71,57.6848365 71,56.0625 L71,14.9375 C71,13.3151635 69.67924,12 68.05,12 L14.95,12 C13.32076,12 12,13.3151635 12,14.9375 L12,56.0625 C12,57.6848365 13.32076,59 14.95,59 Z M17.9,17.875 L65.1,17.875 L65.1,53.125 L17.9,53.125 L17.9,17.875 Z" id="Shape" fill="#F3E6D3" fill-rule="nonzero"></path>
                    <path d="M32.125,73 L26.375,73 L26.375,67 C26.375,65.3431458 25.0878187,64 23.5,64 C21.9121813,64 20.625,65.3431458 20.625,67 L20.625,73 L14.875,73 C13.2871813,73 12,74.3431458 12,76 C12,77.6568542 13.2871813,79 14.875,79 L20.625,79 L20.625,85 C20.625,86.6568542 21.9121813,88 23.5,88 C25.0878187,88 26.375,86.6568542 26.375,85 L26.375,79 L32.125,79 C33.7128187,79 35,77.6568542 35,76 C35,74.3431458 33.7128187,73 32.125,73 Z" id="Path" fill="#182A46"></path>
                    <path d="M53,76 C49.6862915,76 47,78.6862915 47,82 C47,85.3137085 49.6862915,88 53,88 C56.3137085,88 59,85.3137085 59,82 C59,78.6862915 56.3137085,76 53,76 Z" id="Shape" fill="#F2907B" fill-rule="nonzero"></path>
                    <path d="M64,64 C60.6862915,64 58,66.6862915 58,70 C58,73.3137085 60.6862915,76 64,76 C67.3137085,76 70,73.3137085 70,70 C70,66.6862915 67.3137085,64 64,64 Z" id="Shape" fill="#182A46" fill-rule="nonzero"></path>
                </g>
                <g id="Group-5" transform="translate(490.000000, 249.000000)">
                    <path d="M15.290141,53 L29.5594229,54 C29.268497,40.2393417 30.1722136,31.5824196 32.2705726,28.0292337 C35.4181112,22.6994548 44.1860076,20.5942584 49.5571496,27.5775 C53.137911,32.2329944 54.0341676,41.0404944 52.2459196,54 L66.2116031,54 C67.0423827,54.676902 67.375716,59.9201629 67.2116031,69.729783 C67.1865677,71.2262394 65.4014007,70.3200698 65.0553832,72.0909229 C64.5762901,74.542833 65.487717,79.7818075 65.3758256,82.6024192 C65.1511343,88.2665429 65.0963935,98.6569418 65.2116031,113.773616 L78,117.820353 L78,122 L5,122 L5,115.806351 L17.290141,113.773616 C17.6027216,94.9271191 17.6027216,80.754708 17.290141,71.2563822 C17.2260064,69.3075364 15.3840882,71.3912795 15.290141,69.729783 C15.0475179,65.4388891 15.0475179,59.8622948 15.290141,53 Z" id="Rectangle" fill="#F3E6D3"></path>
                    <path d="M63.9159648,98.6382213 L63.9159648,96.8478549 C63.9159648,94.0949797 61.6875215,91.8582686 58.9503579,91.8582686 L24.0620682,91.8582686 C21.3249046,91.8582686 19.0964613,94.0949797 19.0964613,96.8478549 L19.0964613,98.6382213 L63.9159648,98.6382213 Z M68.8021617,31.4969905 C64.7596961,34.2349044 61.3574737,37.8555338 58.8188351,42.0571596 L54.5108423,49.4804472 C54.4835451,49.5303182 54.4339138,49.5627343 54.4016535,49.6076181 L54.3247251,49.7372825 L54.3247251,51.1012524 L61.3276949,51.1012524 L64.300607,45.9770145 C66.8690244,41.5534632 68.4051117,36.5888123 68.8021617,31.4969905 Z M64.2360864,21.0465375 C60.044727,23.8866868 56.5184265,27.656929 53.9524907,32.0630255 C54.1783129,33.0255344 54.3247251,34.0104853 54.3247251,35.0278522 L54.3247251,44.8499315 L59.7394948,35.5215744 C62.3029491,31.0980231 63.8390364,26.1358657 64.2360864,21.0465375 Z M55.6399533,10.1547267 C52.1682471,13.1419953 49.3690444,16.8424182 47.3490524,20.966744 L47.3490524,23.5899548 C48.5153868,24.1958866 49.6246453,24.9314828 50.5775654,25.8914981 C51.0366545,26.3552978 51.4212967,26.8739554 51.8009758,27.3926131 L52.8208981,25.0561601 C54.8632242,20.3682928 55.8260705,15.2590162 55.6399533,10.1547267 Z M41.5000091,4.29738619 C39.2963815,8.89797932 38.1350101,13.9623721 38.1350101,19.0816229 L38.1350101,22.6249523 C39.2144899,22.3257268 40.3287115,22.1162689 41.5000091,22.1162689 C42.6613805,22.1162689 43.7756021,22.3232332 44.8674897,22.6174717 L44.8674897,19.0816229 C44.8674897,13.9623721 43.7061184,8.89797932 41.5000091,4.29738619 Z M29.0500092,32.0655191 C26.4840734,27.6594226 22.9577728,23.8866868 18.7639319,21.0465375 C19.1609819,26.1358657 20.6995508,31.0980231 23.263005,35.5240679 L28.6752932,44.8499315 L28.6752932,35.0278522 C28.6752932,34.0030046 28.824187,33.0180538 29.0500092,32.0655191 Z M24.1787016,42.0521725 C21.640063,37.8530403 18.2403221,34.2349044 14.1978565,31.4969905 C14.5973881,36.5888123 16.1334754,41.5534632 18.6994112,45.9770145 L21.6748049,51.1012524 L28.6752932,51.1012524 L28.6752932,49.7372825 L28.6008463,49.6076181 C28.5661045,49.5627343 28.5189548,49.5303182 28.489176,49.4804472 L24.1787016,42.0521725 Z M71.1647442,66.0124636 C74.4994829,62.6523646 77.0939777,58.6006349 78.7675488,54.1539398 C75.6507475,55.3423173 72.7209724,57.0030383 70.0746885,59.0787832 L70.0746885,67.1108006 L71.1647442,66.0124636 Z M70.0211238,72.1278599 L66.8163968,72.1278599 L66.8163968,112.907763 L70.0211238,112.907763 L70.0211238,72.1278599 Z M12.9913023,72.1278599 L12.9913023,112.907763 L16.1985109,112.907763 L16.1985109,72.1278599 L12.9913023,72.1278599 Z M4.23457593,54.1539713 C5.90522515,58.5976921 8.50080208,62.6501329 11.8377545,66.0124625 L12.9278113,67.1108006 L12.9278113,59.0786824 C10.2871335,57.0057848 7.35414112,55.3438873 4.23457593,54.1539713 Z M8.65885045,42.5334805 C9.45755655,46.2237497 10.9060425,49.7823263 12.9278113,53.0585655 L12.9278113,52.3505192 C12.9278113,51.4292496 13.6676258,50.683806 14.5849803,50.683806 L18.0781281,50.683806 L17.7694656,50.1505213 C15.1556578,47.0474969 12.0742546,44.4638311 8.65885045,42.5334805 Z M27.7579575,11.0619821 C27.7106465,15.8109691 28.6670229,20.5367155 30.5630229,24.8887126 L31.3072192,26.5925152 C32.3859113,25.2769464 33.7173031,24.1801625 35.2370597,23.3516643 L35.2370597,21.0641557 C33.3511962,17.2471256 30.8167559,13.8488652 27.7579575,11.0619821 Z M68.4175195,50.683806 C69.3331205,50.683806 70.0746886,51.4299845 70.0746886,52.3505192 L70.0746886,53.0574571 C72.0944904,49.781442 73.5428215,46.2232435 74.3432005,42.5334697 C70.9182763,44.4680888 67.8331584,47.0566299 65.2513656,50.1188496 L64.9243718,50.683806 L68.4175195,50.683806 Z M53.0839437,54.0147388 C52.1671013,54.0147388 51.4267747,53.2698081 51.4267747,52.3505192 L51.4267747,35.0278522 C51.4267747,32.3447842 50.397131,29.8343837 48.5256663,27.9490903 C46.6522991,26.0642814 44.1598232,25.0272617 41.5000091,25.0272617 C36.0278596,25.0272617 31.5757252,29.5127545 31.5757252,35.0278522 L31.5757252,52.3505192 C31.5757252,53.2695886 30.8331319,54.0147388 29.9160745,54.0147388 L16.2421494,54.0147388 L16.2421494,68.7994207 L17.8556799,68.7994207 C18.7725224,68.7994207 19.512849,69.5443514 19.512849,70.4636403 L19.512849,90.4350437 C20.8346655,89.4769259 22.4074297,88.9472758 24.0620682,88.9472758 L55.2458996,88.9472758 L55.2458996,62.1287388 L48.4781634,62.1287388 C47.5605933,62.1287388 46.8209943,61.3855682 46.8209943,60.4645192 L46.8209943,35.0278522 C46.8209943,32.0705604 44.4354334,29.6677516 41.5000091,29.6677516 C38.5667103,29.6677516 36.1815055,32.0709195 36.1815055,35.0278522 L36.1815055,60.4645192 C36.1815055,61.3848361 35.440154,62.1287388 34.5243364,62.1287388 L27.7541186,62.1287388 L27.7541186,75.5380073 C27.7541186,76.4572962 27.013792,77.2022269 26.0969496,77.2022269 C25.1801071,77.2022269 24.4397805,76.4572962 24.4397805,75.5380073 L24.4397805,60.4645192 C24.4397805,59.5452303 25.1801071,58.8002996 26.0969496,58.8002996 L32.8671674,58.8002996 L32.8671674,35.0278522 C32.8671674,30.2346397 36.7381843,26.3368188 41.5000091,26.3368188 C46.2622673,26.3368188 50.1353324,30.2350764 50.1353324,35.0278522 L50.1353324,58.8002996 L56.9030687,58.8002996 C57.8199111,58.8002996 58.5602377,59.5452303 58.5602377,60.4645192 L58.5602377,88.9472758 L58.9503579,88.9472758 C60.6049964,88.9472758 62.1777606,89.4769259 63.4995771,90.4350437 L63.4995771,70.4636403 C63.4995771,69.5438381 64.2404168,68.7994207 65.1592277,68.7994207 L66.7603504,68.7994207 L66.7603504,54.0147388 L53.0839437,54.0147388 Z M77.5055168,120.995358 C77.5055168,118.372535 75.3858128,116.236202 72.7850698,116.236202 C72.5953348,116.236202 72.4114449,116.199071 72.2319282,116.130531 C72.052846,116.19922 71.8705053,116.236202 71.6807744,116.236202 L65.1592277,116.236202 C64.2404168,116.236202 63.4995771,115.491785 63.4995771,114.571983 L63.4995771,101.549214 L19.512849,101.549214 L19.512849,114.571983 C19.512849,115.491272 18.7725224,116.236202 17.8556799,116.236202 L11.3341332,116.236202 C11.1441354,116.236202 10.9620228,116.199247 10.7815379,116.130321 C10.6022803,116.199144 10.4197616,116.236202 10.2298378,116.236202 C7.62696647,116.236202 5.50690924,118.372178 5.50690924,120.995358 L5.50690924,122.183756 L77.5055168,122.183756 L77.5055168,120.995358 Z M80.9097631,49.9546544 C81.4873601,49.801219 82.1026868,49.964317 82.5135722,50.3838346 C82.934586,50.8035505 83.0978421,51.4219426 82.9419783,51.9984244 C81.2679377,58.1771436 78.0054055,63.8391094 73.5116275,68.3646785 L72.7046298,69.1755732 C73.0941127,69.4777664 73.3379435,69.9428812 73.3379435,70.4636403 L73.3379435,112.940523 C77.5189499,113.228066 80.8223365,116.732825 80.8223365,120.995358 L80.8223365,123.847976 C80.8223365,124.766531 80.080256,125.512195 79.1651675,125.512195 L3.84974017,125.512195 C2.93268287,125.512195 2.19008955,124.767045 2.19008955,123.847976 L2.19008955,120.995358 C2.19008955,116.732825 5.49347619,113.228066 9.67448259,112.940523 L9.67448259,70.4636403 C9.67448259,69.9454527 9.91522419,69.4825212 10.3008628,69.180252 L9.49054427,68.3643485 C4.99567412,63.8376792 1.73155239,58.1751942 0.0580399413,51.9984244 C-0.0978238042,51.4219426 0.0654322258,50.8035505 0.48528136,50.3850003 C0.904701083,49.9635552 1.51399368,49.8015737 2.09355091,49.9555444 C4.38015488,50.5831229 6.61823187,51.4515247 8.78281423,52.5429245 C6.70950245,48.5597994 5.36859838,44.2302902 4.84325347,39.7819746 C4.77351065,39.1879664 5.02678837,38.5996638 5.5054969,38.2480266 C5.98341025,37.8936564 6.60648188,37.8243957 7.15980757,38.0622314 C9.35221904,39.0342636 11.470653,40.2605409 13.505326,41.7205304 C12.0232228,37.7122687 11.2385661,33.4718433 11.1981877,29.2025681 C11.1915718,28.6042665 11.5056459,28.0503724 12.0198149,27.7503819 C12.5347802,27.4485348 13.1682015,27.446698 13.6842777,27.744458 C15.0765847,28.5522208 16.4356641,29.5047 17.8609084,30.6516835 C16.5151886,26.8138226 15.8015095,22.7904387 15.7617814,18.7496216 C15.7551633,18.151118 16.0693554,17.5977088 16.5866133,17.294519 C17.1011174,16.9943319 17.7345489,16.992495 18.2505015,17.2915976 C21.3486539,19.0907348 24.1810782,21.382458 26.6712588,24.0793713 C24.7545807,18.8035448 24.0538973,13.1283758 24.6428904,7.52701421 C24.7025557,6.93414079 25.0791275,6.41731501 25.6259717,6.17608371 C26.1714672,5.93878366 26.8094582,6.01104322 27.2785694,6.36624894 C30.4211387,8.71032807 33.1814979,11.6159507 35.4820113,14.9603647 C36.0385862,9.96765282 37.5947035,5.13850863 40.0606434,0.795290262 C40.6592493,-0.264974978 42.33987,-0.264974978 42.9414431,0.794559795 C45.4049643,5.13760246 46.9613214,9.96875142 47.5199874,14.9608413 C49.8181576,11.6191322 52.580164,8.71104367 55.7212919,6.36636607 C56.1973694,6.01090571 56.832157,5.93890493 57.3760045,6.17694145 C57.9208907,6.41731501 58.2974625,6.93414079 58.3569366,7.52515504 C58.9459703,13.1269389 58.2458213,18.8021035 56.3306528,24.0787721 C58.8188836,21.3826658 61.6515158,19.0906499 64.7525244,17.2898677 C65.2711135,16.9944708 65.903189,16.995386 66.4166096,17.2949418 C66.9326518,17.5974201 67.2448612,18.1505528 67.2382444,18.74888 C67.2007296,22.7889938 66.4877292,26.8125279 65.1415977,30.6516556 C66.5659863,29.5052896 67.9251752,28.5522624 69.3176053,27.7433826 C69.8334765,27.4476502 70.4660555,27.4504018 70.978475,27.7493744 C71.4954438,28.0490659 71.8084636,28.6027148 71.8018395,29.2016789 C71.7636995,33.4714387 70.979353,37.7117714 69.4956221,41.7198774 C71.5309452,40.2595809 73.6501359,39.0334283 75.847872,38.0599769 C76.3996149,37.8242708 77.0258662,37.8937838 77.4966077,38.2477339 C77.974107,38.6009238 78.2263827,39.1890299 78.1567315,39.7822571 C77.6315422,44.2292547 76.2909922,48.5590005 74.2188276,52.5433551 C76.3830548,51.4520549 78.6215055,50.5832443 80.9097631,49.9546544 Z" id="Combined-Shape" fill="#182A46"></path>
                </g>
            </g>
        </g>
    </g>
</svg>